<svg height="250" width="230" xmlns="http://www.w3.org/2000/svg" xmlns:xlink="http://www.w3.org/1999/xlink"><linearGradient id="a"><stop offset="0" stop-color="#ff0002"/><stop offset=".5" stop-color="#ffa100"/><stop offset="1" stop-color="#ff0002"/></linearGradient><linearGradient id="b"><stop offset="0" stop-color="#873a00"/><stop offset=".5" stop-color="#ff2300"/><stop offset="1" stop-color="#873a00"/></linearGradient><linearGradient id="c"><stop offset="0" stop-color="#002cff"/><stop offset=".5" stop-color="#00d8ff"/><stop offset="1" stop-color="#002cff"/></linearGradient><linearGradient id="d" gradientTransform="matrix(.06104233 0 0 .05477196 26.993327 991.80316)" gradientUnits="userSpaceOnUse" x1="257.42029" x2="322.94861" xlink:href="#a" y1="404.41205" y2="404.41205"/><linearGradient id="e" gradientTransform="matrix(.06104232 0 0 .08763479 26.993317 1033.013)" gradientUnits="userSpaceOnUse" x1="257.42029" x2="322.94861" xlink:href="#a" y1="404.41205" y2="404.41205"/><linearGradient id="f" gradientTransform="matrix(.06104232 0 0 .6353525 -16.00668 786.50956)" gradientUnits="userSpaceOnUse" x1="257.42029" x2="322.94861" xlink:href="#a" y1="404.41205" y2="404.41205"/><linearGradient id="g" gradientTransform="matrix(.06104233 0 0 .15336115 159.99333 803.43252)" gradientUnits="userSpaceOnUse" x1="257.42029" x2="322.94861" xlink:href="#c" y1="404.41205" y2="404.41205"/><linearGradient id="h" gradientTransform="matrix(.06104232 0 0 .08763487 159.99334 1033.0129)" gradientUnits="userSpaceOnUse" x1="257.42029" x2="322.94861" xlink:href="#c" y1="404.41205" y2="404.41205"/><linearGradient id="i" gradientTransform="matrix(.06104233 0 0 1.0516181 159.99335 543.16656)" gradientUnits="userSpaceOnUse" x1="257.42029" x2="322.94861" xlink:href="#c" y1="404.41205" y2="404.41205"/><linearGradient id="j" gradientTransform="matrix(.06104232 0 0 .16431554 -16.006665 801.50241)" gradientUnits="userSpaceOnUse" x1="257.42029" x2="322.94861" xlink:href="#a" y1="404.41205" y2="404.41205"/><linearGradient id="k" gradientTransform="matrix(.06104233 0 0 .08763467 93.993342 1033.013)" gradientUnits="userSpaceOnUse" x1="257.42029" x2="322.94861" xlink:href="#b" y1="404.41205" y2="404.41205"/><linearGradient id="l" gradientTransform="matrix(.06104232 0 0 .48199139 -16.00668 750.53048)" gradientUnits="userSpaceOnUse" x1="257.42029" x2="322.94861" xlink:href="#a" y1="404.41205" y2="404.41205"/><linearGradient id="m" gradientTransform="matrix(.06104231 0 0 .186224 93.993336 932.64236)" gradientUnits="userSpaceOnUse" x1="257.42029" x2="322.94861" xlink:href="#b" y1="404.41205" y2="404.41205"/><linearGradient id="n" gradientTransform="matrix(.06104239 0 0 .67916989 936.74005 -309.3716)" gradientUnits="userSpaceOnUse" x1="257.42029" x2="322.94861" xlink:href="#a" y1="404.41205" y2="404.41205"/><linearGradient id="o" gradientTransform="matrix(1.1820561 0 0 1.3447883 -702.48275 609.88003)" gradientUnits="userSpaceOnUse" x1="687.09961" x2="687.09961" y1="233.2959" y2="239.75"><stop offset=".15" stop-color="#fff"/><stop offset="1"/></linearGradient><linearGradient id="p" gradientTransform="matrix(1.1938614 0 0 1.2183777 -709.71447 641.16504)" gradientUnits="userSpaceOnUse" x1="687.2002" x2="687.2002" y1="240.85159" y2="247.9761"><stop offset=".0056"/><stop offset=".4438" stop-color="#fff"/><stop offset="1"/></linearGradient><linearGradient id="q" gradientTransform="matrix(1.215402 0 0 1.3808172 -724.67779 601.37264)" gradientUnits="userSpaceOnUse" x1="660.44427" x2="714.2207" y1="268.3779" y2="268.3779"><stop offset="0"/><stop offset=".0851" stop-color="#393939"/><stop offset=".1984" stop-color="#7f7f7f"/><stop offset=".3008" stop-color="#b6b6b6"/><stop offset=".3883" stop-color="#dedede"/><stop offset=".4576" stop-color="#f6f6f6"/><stop offset=".5" stop-color="#fff"/><stop offset=".5424" stop-color="#f6f6f6"/><stop offset=".6117" stop-color="#dedede"/><stop offset=".6992" stop-color="#b6b6b6"/><stop offset=".8016" stop-color="#7f7f7f"/><stop offset=".9149" stop-color="#393939"/><stop offset="1"/></linearGradient><linearGradient id="r" gradientTransform="matrix(.06104239 0 0 .21908712 -972.16708 63.105368)" gradientUnits="userSpaceOnUse" x1="257.42029" x2="322.94861" xlink:href="#c" y1="404.41205" y2="404.41205"/><linearGradient id="s" gradientUnits="userSpaceOnUse" x1="43.529308" x2="100.49008" xlink:href="#a" y1="313.69116" y2="313.69116"/><linearGradient id="t" gradientUnits="userSpaceOnUse" x1="43.529308" x2="100.49008" xlink:href="#c" y1="313.69116" y2="313.69116"/><linearGradient id="u" gradientUnits="userSpaceOnUse" x1="43.529308" x2="100.49008" xlink:href="#b" y1="313.69116" y2="313.69116"/><linearGradient id="v" gradientTransform="matrix(.06689045 0 0 .59720797 1293.2802 1353.0536)" gradientUnits="userSpaceOnUse" x1="257.42029" x2="322.94861" xlink:href="#a" y1="404.41205" y2="404.41205"/><g transform="translate(26.293152 -836.45361)"><path d="m1310.4991 1567.3132h4.3832183v54.51786h-4.3832183z" fill="url(#v)" fill-rule="evenodd" transform="matrix(1 0 -.78170436 .62364918 0 0)"/><path d="m-956.45361 141.70685h4.0000048v20h-4.0000048z" fill="url(#r)" fill-rule="evenodd" transform="rotate(-90)"/><path d="m143.54671 942.191h-65.679723v-7.57725h65.679723z" fill="#a6a6a6" stroke="#000"/><path d="m78.027128 943.77388h65.359442c0 0-7.44555 47.27228-25.86131 56.32492l-13.86531.035c-22.209038-11.33284-25.632822-56.35992-25.632822-56.35992z" fill="url(#q)" stroke="#000"/><path d="m80.158542 934.61375l-.323541 1.90066c0 2.32589-1.72871 4.24117-3.966002 4.24117l-.002 2.53789h69.679721v-2.56835c-2.23849 0-4.04958-1.88482-4.04958-4.21193l-.28294-1.88726" fill="url(#p)" stroke="#000"/><path d="m141.54671 930.03647c0-3.54621-14.2544-6.42272-31.83986-6.42272-17.581902 0-31.839864 2.87651-31.839864 6.42272l.173758 2.25117 63.346396.006.15957-2.25655z" fill="url(#o)" stroke="#000"/><path d="m140.45834 933.49535l.0883.79812h-59.679673l.112774-.84185-.112774-.83787h59.679673z" fill="#666" stroke="#000"/><g fill="#0f0f0e" stroke="#000" stroke-width=".25" transform="matrix(1.1866995 0 0 1.3830178 -705.26375 600.31591)"><path d="m671.564 243.296h-.836v-4.792h.836z"/><path d="m670.715 244.189h-.776v-2.013h.776z"/><path d="m672.19 238.523h-2.062v-.625h2.062z"/><path d="m672.346 244.184h-.775v-2.013h.775z"/><path d="m671.529 237.884h-.799v-.5h.799z"/></g><g fill="#0f0f0e" stroke="#000" stroke-width=".25" transform="matrix(1.1866995 0 0 1.3830178 -705.26375 600.31591)"><path d="m702.42 243.296h-.837v-4.792h.837z"/><path d="m701.57 244.189h-.776v-2.013h.776z"/><path d="m703.046 238.523h-2.063v-.625h2.063z"/><path d="m703.201 244.184h-.774v-2.013h.774z"/><path d="m702.387 237.884h-.802v-.5h.802z"/></g><path d="m952.45361-65.706848h4.0000048v62h-4.0000048z" fill="url(#n)" fill-rule="evenodd" transform="rotate(90)"/><path d="m72.009698 338.35589l-28.480388-49.32947 56.96077-.00001z" fill="url(#s)" fill-rule="evenodd" transform="matrix(0 -.24578312 .28380596 0 -16.32057 972.15237)"/><path d="m72.009698 338.35589l-28.480388-49.32947 56.96077-.00001z" fill="url(#t)" fill-rule="evenodd" transform="matrix(0 -.24578324 .28380596 0 79.67943 972.15239)"/><path d="m109.70685 999.45361h3.999999v16.999996h-3.999999z" fill="url(#m)" fill-rule="evenodd"/><path d="m72.009698 338.35589l-28.480388-49.32947 56.96077-.00001z" fill="url(#u)" fill-rule="evenodd" transform="matrix(.24578318 0 0 .28380603 94.008077 990.42617)"/><path d="m-.29315186 923.45361h4v43.999981h-4z" fill="url(#l)" fill-rule="evenodd"/><path d="m109.70685 1064.4536h4.000001v7.9999847h-4.000001z" fill="url(#k)" fill-rule="evenodd"/><path d="m-.29315186 860.45361h4v15.00002h-4z" fill="url(#j)" fill-rule="evenodd"/><path d="m175.70685 920.45361h4.000001v96h-4.000001z" fill="url(#i)" fill-rule="evenodd"/><path d="m72.009698 338.35589l-28.480388-49.32947 56.96077-.00001z" fill="url(#t)" fill-rule="evenodd" transform="matrix(.24578311 0 0 .283806 160.00808 990.42618)"/><path d="m175.70685 1064.4536h4v8.0000019h-4z" fill="url(#h)" fill-rule="evenodd"/><path d="m175.70685 858.45361h4.000001v14.000017h-4.000001z" fill="url(#g)" fill-rule="evenodd"/><path d="m-.29315186 1014.4536h4v58h-4z" fill="url(#f)" fill-rule="evenodd"/><path d="m42.706848 1064.4536h4v7.9999962h-4z" fill="url(#e)" fill-rule="evenodd"/><path d="m42.706848 1011.4536h4.000001v5.0000172h-4.000001z" fill="url(#d)" fill-rule="evenodd"/><path d="m72.009698 338.35589l-28.480388-49.32947 56.96077-.00001z" fill="url(#s)" fill-rule="evenodd" transform="matrix(.24578318 0 0 .28380596 27.008077 990.42619)"/><path d="m72.009698 338.35589l-28.480388-49.32947 56.96077-.00001z" fill="url(#s)" fill-rule="evenodd" transform="matrix(.24578318 0 0 .28380596 -15.991923 990.42619)"/></g></svg>