<svg height="100" width="150" xmlns="http://www.w3.org/2000/svg" xmlns:xlink="http://www.w3.org/1999/xlink"><linearGradient id="a" gradientTransform="matrix(1.5929299 0 0 2.2890565 -780.8032 -235.81964)" gradientUnits="userSpaceOnUse" x1="578.68408" x2="578.68408" xlink:href="#b" y1="524.10059" y2="539.82709"/><linearGradient id="b" gradientUnits="userSpaceOnUse" x1="1008.9409" x2="1049.4409" y1="303.42969" y2="303.42969"><stop offset="0" stop-color="#333"/><stop offset=".0619" stop-color="#5b5b5b"/><stop offset=".1482" stop-color="#8d8d8d"/><stop offset=".2337" stop-color="#b6b6b6"/><stop offset=".3168" stop-color="#d6d6d6"/><stop offset=".3967" stop-color="#ededed"/><stop offset=".4722" stop-color="#fafafa"/><stop offset=".5385" stop-color="#fff"/><stop offset=".592" stop-color="#fafafa"/><stop offset=".657" stop-color="#ebebeb"/><stop offset=".728" stop-color="#d2d2d2"/><stop offset=".8032" stop-color="#b0b0b0"/><stop offset=".8818" stop-color="#848484"/><stop offset=".962" stop-color="#4f4f4f"/><stop offset="1" stop-color="#333"/></linearGradient><linearGradient id="c" gradientTransform="matrix(0 .88888881 -1.3087929 0 472.62589 67.038558)" gradientUnits="userSpaceOnUse" x1="1008.9409" x2="1049.4409" xlink:href="#b" y1="303.42969" y2="303.42969"/><linearGradient id="d"><stop offset=".05" stop-color="#fff"/><stop offset=".98" stop-color="#333"/></linearGradient><linearGradient id="e" gradientTransform="matrix(1.1866995 0 0 2.1631475 -581.8173 -168.96823)" gradientUnits="userSpaceOnUse" x1="596.88037" x2="596.88037" xlink:href="#d" y1="525.01709" y2="538.96478"/><linearGradient id="f" gradientTransform="matrix(1.1866995 0 0 2.1674975 -593.5136 -171.25206)" gradientUnits="userSpaceOnUse" x1="583.98438" x2="583.98438" xlink:href="#g" y1="525.01709" y2="538.9375"/><linearGradient id="g" gradientUnits="userSpaceOnUse" x1="583.98438" x2="583.98438" xlink:href="#d" y1="525.01709" y2="538.9375"/><linearGradient id="h" gradientTransform="matrix(2.4439057 0 0 2.1593602 -1328.6949 -166.82608)" gradientUnits="userSpaceOnUse" x1="590.52777" x2="590.52777" xlink:href="#b" y1="525.01709" y2="538.91022"/><linearGradient id="i" gradientTransform="matrix(1.5929299 0 0 2.2890571 -833.8032 -235.8199)" gradientUnits="userSpaceOnUse" x1="578.68408" x2="578.68408" xlink:href="#b" y1="524.10059" y2="539.82709"/><radialGradient id="j" cx="230.3882" cy="490.17581" gradientTransform="matrix(.58087413 0 0 .57429252 -74.32642 719.4047)" gradientUnits="userSpaceOnUse" r="19.0457"><stop offset="0" stop-color="#333"/><stop offset=".1781" stop-color="#363636"/><stop offset=".3212" stop-color="#404040"/><stop offset=".4522" stop-color="#515151"/><stop offset=".5759" stop-color="#696969"/><stop offset=".6945" stop-color="#888"/><stop offset=".8093" stop-color="#aeaeae"/><stop offset=".9189" stop-color="#d9d9d9"/><stop offset="1" stop-color="#fff"/></radialGradient><linearGradient id="k" gradientTransform="matrix(0 -1.1866995 .69534434 0 -281.90722 1688.8886)" gradientUnits="userSpaceOnUse" x1="583.98438" x2="583.98438" xlink:href="#g" y1="525.01709" y2="538.9375"/><linearGradient id="l" gradientTransform="matrix(0 -1.1866995 .69534434 0 -281.90722 1684.8886)" gradientUnits="userSpaceOnUse" x1="583.98438" x2="583.98438" xlink:href="#g" y1="525.01709" y2="538.9375"/><linearGradient id="m" gradientTransform="matrix(0 -1.1866995 .69534434 0 -281.90722 1680.8886)" gradientUnits="userSpaceOnUse" x1="583.98438" x2="583.98438" xlink:href="#g" y1="525.01709" y2="538.9375"/><linearGradient id="n" gradientTransform="matrix(0 -1.1866995 .69534434 0 -281.90722 1676.8886)" gradientUnits="userSpaceOnUse" x1="583.98438" x2="583.98438" xlink:href="#g" y1="525.01709" y2="538.9375"/><linearGradient id="o" gradientTransform="matrix(0 -1.1866995 .69534434 0 -281.90722 1672.8886)" gradientUnits="userSpaceOnUse" x1="583.98438" x2="583.98438" xlink:href="#g" y1="525.01709" y2="538.9375"/><linearGradient id="p" gradientTransform="matrix(0 -1.1866995 .69534434 0 -281.90722 1668.8886)" gradientUnits="userSpaceOnUse" x1="583.98438" x2="583.98438" xlink:href="#g" y1="525.01709" y2="538.9375"/><linearGradient id="q" gradientTransform="matrix(0 -1.1866995 .69534434 0 -281.90722 1664.8886)" gradientUnits="userSpaceOnUse" x1="583.98438" x2="583.98438" xlink:href="#g" y1="525.01709" y2="538.9375"/><linearGradient id="r" gradientTransform="matrix(0 -1.1866995 .69534434 0 -281.90722 1660.8886)" gradientUnits="userSpaceOnUse" x1="583.98438" x2="583.98438" xlink:href="#g" y1="525.01709" y2="538.9375"/><g transform="translate(-22 -940.375)"><path d="m92.49999 999.875h-8.99998v-36.00002h8.99998z" fill="url(#i)" stroke="#000"/><path d="m136.5 996.875h-44v-30.00003h44z" fill="url(#h)" stroke="#000" stroke-width=".99999994"/><path d="m99.5 966.72101v30.17159" fill="url(#f)" stroke="#000"/><path d="m126.5 966.72101v30.17159" fill="url(#e)" stroke="#000"/><path d="m67.50095 978.7283v6.0426l-.00095-.2515 16 15.3556v-36.00003l-15.99867 14.85333z" fill="url(#c)" stroke="#000" stroke-linejoin="bevel"/><path d="m145.49999 999.875h-8.99998v-36.00003h8.99998z" fill="url(#a)" stroke="#000"/><path d="m69.49999 1014.9091h-21l4.37843-6.0341 12.72998.04 3.89159 5.994z" fill="#666" stroke="#000" stroke-linejoin="bevel"/><path d="m70.49999 1000.9091c0 6.0755-4.92522 11-11 11-6.07478 0-11-4.9251-11-11 0-6.0749 4.92522-11 11-11 6.07478 0 11 4.9246 11 11z" fill="url(#j)" stroke="#000" stroke-width=".99999994"/><path d="m70.999985 1000.375h22v2h-22z" fill="#333"/><path d="m83.16039 995.875h9.67919" fill="url(#k)" stroke="#000"/><path d="m83.16039 991.875h9.67919" fill="url(#l)" stroke="#000"/><path d="m83.16039 987.875h9.67919" fill="url(#m)" stroke="#000"/><path d="m83.16039 983.875h9.67919" fill="url(#n)" stroke="#000"/><path d="m83.16039 979.875h9.67919" fill="url(#o)" stroke="#000"/><path d="m83.16039 975.875h9.67919" fill="url(#p)" stroke="#000"/><path d="m83.16039 971.87497h9.67919" fill="url(#q)" stroke="#000"/><path d="m83.16039 967.87497h9.67919" fill="url(#r)" stroke="#000"/></g></svg>