<?xml version="1.0" encoding="UTF-8" standalone="no"?>
<svg
   xmlns:dc="http://purl.org/dc/elements/1.1/"
   xmlns:cc="http://creativecommons.org/ns#"
   xmlns:rdf="http://www.w3.org/1999/02/22-rdf-syntax-ns#"
   xmlns:svg="http://www.w3.org/2000/svg"
   xmlns="http://www.w3.org/2000/svg"
   xmlns:sodipodi="http://sodipodi.sourceforge.net/DTD/sodipodi-0.dtd"
   xmlns:inkscape="http://www.inkscape.org/namespaces/inkscape"
   inkscape:version="1.0 (4035a4fb49, 2020-05-01)"
   sodipodi:docname="boilerBtn.svg"
   version="1.1"
   width="48"
   viewBox="0 0 47.9745 47.9745"
   height="48"
   enable-background="new 0 0 511.728 511.728"
   id="Capa_1">
  <metadata
     id="metadata1657">
    <rdf:RDF>
      <cc:Work
         rdf:about="">
        <dc:format>image/svg+xml</dc:format>
        <dc:type
           rdf:resource="http://purl.org/dc/dcmitype/StillImage" />
        <dc:title></dc:title>
      </cc:Work>
    </rdf:RDF>
  </metadata>
  <defs
     id="defs1655" />
  <sodipodi:namedview
     inkscape:current-layer="Capa_1"
     inkscape:window-maximized="1"
     inkscape:window-y="0"
     inkscape:window-x="0"
     inkscape:cy="64.103281"
     inkscape:cx="17.18105"
     inkscape:zoom="3.305963"
     showgrid="false"
     id="namedview1653"
     inkscape:window-height="1043"
     inkscape:window-width="1890"
     inkscape:pageshadow="2"
     inkscape:pageopacity="0"
     guidetolerance="10"
     gridtolerance="10"
     objecttolerance="10"
     borderopacity="1"
     bordercolor="#666666"
     pagecolor="#ffffff" />
  <g
     style="stroke-width:10.6667"
     transform="matrix(0.09375005,0,0,0.09375005,0.08493275,0)"
     id="g2226">
    <path
       style="stroke-width:10.6667"
       d="m 313.235,131.961 c 0,-31.632 -25.737,-57.366 -57.372,-57.366 -31.635,0 -57.372,25.734 -57.372,57.366 0,31.632 25.737,57.366 57.372,57.366 31.635,0 57.372,-25.734 57.372,-57.366 z m -99.743,0 c 0,-23.361 19.008,-42.366 42.372,-42.366 23.364,0 42.372,19.005 42.372,42.366 0,23.361 -19.008,42.366 -42.372,42.366 -23.364,0 -42.372,-19.005 -42.372,-42.366 z"
       id="path1640" />
    <path
       style="stroke-width:10.6667"
       d="m 275.702,122.48 c 6.81,-6.809 -3.786,-17.427 -10.605,-10.607 l -15.037,15.035 c -6.713,6.712 3.738,17.475 10.605,10.607 z"
       id="path1642" />
    <path
       style="stroke-width:10.6667"
       d="m 416.686,50.273 c 0,-15.023 -10.043,-28.458 -24.422,-32.67 C 369.827,11.029 322.273,0 255.864,0 239.882,0 223.853,0.681 208.222,2.023 198.627,2.847 199.898,17.795 209.505,16.968 224.711,15.662 240.308,15 255.864,15 c 64.536,0 110.517,10.649 132.182,16.998 8.031,2.353 13.64,9.868 13.64,18.276 V 300.622 H 110.042 V 50.49 c 0,-8.461 5.672,-15.996 13.793,-18.322 11.309,-3.239 23.561,-6.107 36.416,-8.525 9.464,-1.78 6.705,-16.528 -2.773,-14.741 -13.31,2.503 -26.019,5.48 -37.772,8.847 -14.521,4.159 -24.663,17.623 -24.663,32.742 v 327.726 c 0,15.023 10.043,28.458 24.422,32.67 5.667,1.661 12.942,3.605 21.713,5.585 v 18.281 c 0,10.837 6.984,20.214 17.38,23.333 7.447,2.233 18.809,5.175 33.661,7.673 V 504.5 c 0,9.63 15,9.644 15,0 v -36.56 c 4.486,0.556 9.207,1.055 14.153,1.478 V 504.5 c 0,9.63 15,9.644 15,0 v -34.09 c 6.213,0.293 12.708,0.461 19.493,0.461 6.55,0 13.051,-0.16 19.493,-0.475 V 504.5 c 0,9.63 15,9.644 15,0 v -35.135 c 4.758,-0.42 9.477,-0.929 14.153,-1.525 v 36.66 c 0,9.63 15,9.644 15,0 v -38.899 c 3.651,-0.626 7.275,-1.3 10.862,-2.036 9.434,-1.936 6.432,-16.631 -3.016,-14.693 -53.191,10.916 -112.262,10.508 -164.49,-5.155 -4.001,-1.2 -6.689,-4.803 -6.689,-8.965 v -15.181 c 25.125,4.743 58.83,8.919 99.687,8.919 40.222,0 74.192,-4.317 99.687,-9.174 v 15.295 c 0,9.63 15,9.644 15,0 V 416.2 c 8.587,-1.936 15.796,-3.833 21.472,-5.458 14.521,-4.159 24.663,-17.623 24.663,-32.742 V 50.273 Z m -28.793,346.048 c -22.385,6.412 -69.304,17.168 -132.029,17.168 -64.536,0 -110.517,-10.649 -132.182,-16.998 -8.031,-2.353 -13.64,-9.868 -13.64,-18.276 V 315.62 H 401.686 V 378 c 0,8.461 -5.672,15.995 -13.793,18.321 z"
       id="path1644" />
    <path
       style="stroke-width:10.6667"
       d="m 203.737,351.74 c -9.652,0 -9.668,15 0,15 9.651,0 9.667,-15 0,-15 z"
       id="path1646" />
    <path
       style="stroke-width:10.6667"
       d="m 255.864,351.74 c -9.652,0 -9.668,15 0,15 9.652,0 9.668,-15 0,-15 z"
       id="path1648" />
    <path
       style="stroke-width:10.6667"
       d="m 307.991,351.74 c -9.652,0 -9.668,15 0,15 9.652,0 9.668,-15 0,-15 z"
       id="path1650" />
  </g>
</svg>
