<svg height="133.0352" width="135.42445" xmlns="http://www.w3.org/2000/svg" xmlns:xlink="http://www.w3.org/1999/xlink"><linearGradient id="a"><stop offset="0" stop-color="#ff6e00"/><stop offset=".5" stop-color="#ffe400"/><stop offset="1" stop-color="#ff6e00"/></linearGradient><linearGradient id="b" gradientTransform="matrix(1.1866995 0 0 1.3830178 -1161.7739 517.59291)" gradientUnits="userSpaceOnUse" x1="985.10791" x2="1025.8579" y1="352.13281" y2="352.13281"><stop offset="0" stop-color="#333"/><stop offset=".0405" stop-color="#595959"/><stop offset=".0954" stop-color="#848484"/><stop offset=".1528" stop-color="#aaa"/><stop offset=".2121" stop-color="#c9c9c9"/><stop offset=".2739" stop-color="#e1e1e1"/><stop offset=".3394" stop-color="#f2f2f2"/><stop offset=".411" stop-color="#fcfcfc"/><stop offset=".5" stop-color="#fff"/><stop offset=".589" stop-color="#fcfcfc"/><stop offset=".6606" stop-color="#f2f2f2"/><stop offset=".7261" stop-color="#e1e1e1"/><stop offset=".7879" stop-color="#c9c9c9"/><stop offset=".8472" stop-color="#aaa"/><stop offset=".9046" stop-color="#848484"/><stop offset=".9595" stop-color="#595959"/><stop offset="1" stop-color="#333"/></linearGradient><linearGradient id="c" gradientTransform="matrix(.04578174 0 0 .05387108 -1043.2439 -80.358322)" gradientUnits="userSpaceOnUse" x1="257.42029" x2="322.94861" xlink:href="#a" y1="404.41205" y2="404.41205"/><radialGradient id="d" cx="188.2524" cy="365.21631" gradientTransform="matrix(-.39774149 0 0 .45381378 146.53667 864.63541)" gradientUnits="userSpaceOnUse" r="26.9842"><stop offset="0"/><stop offset=".75" stop-color="#fff"/><stop offset="1"/></radialGradient><linearGradient id="e" gradientTransform="matrix(-.35515804 0 0 .41391261 138.55467 879.37512)" gradientUnits="userSpaceOnUse" x1="172.74609" x2="172.74609" y1="357.61429" y2="334.25"><stop offset="0"/><stop offset=".62" stop-color="#fff"/><stop offset=".7047" stop-color="#bbb"/><stop offset=".8119" stop-color="#6c6c6c"/><stop offset=".9004" stop-color="#323232"/><stop offset=".9654" stop-color="#111"/><stop offset="1"/></linearGradient><linearGradient id="f" gradientTransform="matrix(-.35515804 0 0 .41391261 138.55467 879.37512)" gradientUnits="userSpaceOnUse" x1="150.7612" x2="150.7612" y1="360.25" y2="331.25"><stop offset="0"/><stop offset=".59" stop-color="#fff"/><stop offset="1"/></linearGradient><linearGradient id="g" gradientTransform="matrix(.04578174 0 0 .06562825 -1035.7129 -116.09956)" gradientUnits="userSpaceOnUse" x1="257.42029" x2="322.94861" xlink:href="#a" y1="404.41205" y2="404.41205"/><linearGradient id="h" gradientTransform="matrix(.04578174 0 0 .64599374 -107.19486 -1255.7422)" gradientUnits="userSpaceOnUse" x1="257.42029" x2="322.94861" xlink:href="#a" y1="404.41205" y2="404.41205"/><linearGradient id="i" gradientUnits="userSpaceOnUse" x1="43.529308" x2="100.49008" xlink:href="#a" y1="313.69116" y2="313.69116"/><g transform="matrix(1.4715525 0 0 1.4715525 -10.1737177 -1405.65356)"><path d="m55.611372 1045.2254h-48.358v-81.25242h48.358z" fill="url(#b)" stroke="#000" stroke-width=".67955446"/><path d="m-1031.4586-61.03093h3v4.9177761h-3z" fill="url(#c)" fill-rule="evenodd" transform="matrix(0 -1 -1 0 0 0)"/><path d="m74.964768 1045.4051h7.053v-1.1995h-7.053z" fill="#7f7f7f" stroke="#000" stroke-width=".43528983"/><path d="m61.468772 1045.4051h7.052996v-1.1995h-7.052996z" fill="#7f7f7f" stroke="#000" stroke-width=".43528983"/><path d="m74.583268 1042.6505l3.8126-2.8883 1.3685 4.4595-4.7996-.017-.3815-1.5547z" fill="#7f7f7f" stroke="#000" stroke-width=".43528983"/><path d="m68.902568 1042.6157l-3.812596-2.8882-1.3685 4.4595 4.799596-.017.3815-1.5546z" fill="#7f7f7f" stroke="#000" stroke-width=".43528983"/><path d="m61.294372 1030.3758c0 6.9865 4.640796 12.6505 10.366296 12.6505 5.7255 0 10.3664-5.6636 10.3664-12.6505 0-6.9868-4.6409-12.6504-10.3664-12.6504-5.7255 0-10.366296 5.6636-10.366296 12.6504z" fill="url(#d)" stroke="#000" stroke-width=".43528983"/><path d="m71.608868 1018.0702l-.03.3448-.2369.483-.2071.7244-.4734 1.69 13.0816 6.0837v-9.6707h-12.0829l-.052.3448z" fill="url(#e)"/><path d="m83.732568 1028.4872h2.556v-12.0035h-2.556z" fill="url(#f)" stroke="#000" stroke-width=".43528983"/><path d="m-1023.9276-92.55426h3v5.9910636h-3z" fill="url(#g)" fill-rule="evenodd" transform="matrix(0 -1 -1 0 0 0)"/><path d="m-95.409729-1023.9802h3v58.971401h-3z" fill="url(#h)" fill-rule="evenodd" transform="scale(-1)"/><path d="m72.009698 338.35589l-28.480388-49.32947 56.96077-.00001z" fill="url(#i)" fill-rule="evenodd" transform="matrix(-.17555941 0 0 -.20271854 106.58386 1023.8091)"/></g></svg>