/* XPM */
static char * iph_logo_32x32_xpm[] = {
"32 32 384 2",
"  	c None",
". 	c #FFFFFF",
"+ 	c #F6F8FB",
"@ 	c #FBFCFD",
"# 	c #BFCFE2",
"$ 	c #789CC1",
"% 	c #4B7AAD",
"& 	c #346AA2",
"* 	c #3067A1",
"= 	c #4A79AC",
"- 	c #769AC0",
"; 	c #BDCEE0",
"> 	c #F9FBFD",
", 	c #F5F8FA",
"' 	c #8DABCA",
") 	c #3168A1",
"! 	c #3167A1",
"~ 	c #3A6EA5",
"{ 	c #3B6EA5",
"] 	c #3067A0",
"^ 	c #89A8C9",
"/ 	c #F3F6FA",
"( 	c #B6C9DD",
"_ 	c #2C64A2",
": 	c #3C70A2",
"< 	c #3C6F9E",
"[ 	c #3168AC",
"} 	c #396EA6",
"| 	c #356AAA",
"1 	c #366BA9",
"2 	c #396DA6",
"3 	c #497999",
"4 	c #3066AC",
"5 	c #2E669F",
"6 	c #B1C6DC",
"7 	c #789BC1",
"8 	c #2861A7",
"9 	c #769A74",
"0 	c #FFFF00",
"a 	c #98B3B4",
"b 	c #346AA1",
"c 	c #3D70A2",
"d 	c #CDDA2B",
"e 	c #8FAD62",
"f 	c #3469AA",
"g 	c #3369AB",
"h 	c #B9CB3B",
"i 	c #D6E122",
"j 	c #46779D",
"k 	c #2D64A3",
"l 	c #7297BE",
"m 	c #658DB8",
"n 	c #2F66AA",
"o 	c #B9CC3A",
"p 	c #BFD0C7",
"q 	c #3167A0",
"r 	c #3066AE",
"s 	c #DEE71C",
"t 	c #FFFF0C",
"u 	c #F0F488",
"v 	c #DBE54A",
"w 	c #BECF8A",
"x 	c #3168A3",
"y 	c #3469AB",
"z 	c #B2C741",
"A 	c #779B87",
"B 	c #3167A6",
"C 	c #5F89B6",
"D 	c #2E65AA",
"E 	c #D1DE26",
"F 	c #FBFC7E",
"G 	c #3268A0",
"H 	c #4C7C96",
"I 	c #F1F4C1",
"J 	c #2A629F",
"K 	c #225CB0",
"L 	c #C8D72F",
"M 	c #FFFF3A",
"N 	c #4C7BBE",
"O 	c #346AAB",
"P 	c #FFFF2B",
"Q 	c #E3EA45",
"R 	c #98B386",
"S 	c #3067A5",
"T 	c #6F95BD",
"U 	c #B1C5DB",
"V 	c #2860A8",
"W 	c #F8FAC9",
"X 	c #5F8991",
"Y 	c #4E7C94",
"Z 	c #C5D4AF",
"` 	c #2D65A2",
" .	c #2C64B0",
"..	c #C6D530",
"+.	c #FFFF39",
"@.	c #628CC8",
"#.	c #FFFF2E",
"$.	c #5582D5",
"%.	c #BECF37",
"&.	c #8AA9A2",
"*.	c #2D649F",
"=.	c #ABC1D8",
"-.	c #F8FAFC",
";.	c #3167A3",
">.	c #739875",
",.	c #FFFFA7",
"'.	c #4677AD",
").	c #59858C",
"!.	c #2F66AE",
"~.	c #E1E91A",
"{.	c #749979",
"].	c #A5BC4C",
"^.	c #FFFF9E",
"/.	c #3C6FA8",
"(.	c #658EC8",
"_.	c #2C64B2",
":.	c #DCE51D",
"<.	c #FFFF14",
"[.	c #5481BA",
"}.	c #3067AB",
"|.	c #F4F709",
"1.	c #FFFF4B",
"2.	c #789CCF",
"3.	c #396DA4",
"4.	c #58848B",
"5.	c #3B6FA4",
"6.	c #3A6FA4",
"7.	c #E5EB19",
"8.	c #FFFF09",
"9.	c #FFFF0E",
"0.	c #FEFE7A",
"a.	c #7D9FCF",
"b.	c #376CA4",
"c.	c #3369AA",
"d.	c #648DC8",
"e.	c #3C6FA4",
"f.	c #42749E",
"g.	c #E2E972",
"h.	c #2D64A5",
"i.	c #81A3C6",
"j.	c #3369A4",
"k.	c #84A467",
"l.	c #D8E2DA",
"m.	c #2C649E",
"n.	c #BECFC8",
"o.	c #2F66A2",
"p.	c #386DA6",
"q.	c #2E66AD",
"r.	c #5683BF",
"s.	c #7499D3",
"t.	c #356AA7",
"u.	c #376BA5",
"v.	c #3268AC",
"w.	c #B2C641",
"x.	c #346AAA",
"y.	c #A7BE4B",
"z.	c #FFFF05",
"A.	c #7196C3",
"B.	c #3268A2",
"C.	c #FCFCFD",
"D.	c #BFD0E2",
"E.	c #245EAB",
"F.	c #DDE51D",
"G.	c #FFFF4A",
"H.	c #668FC7",
"I.	c #D5E083",
"J.	c #789B69",
"K.	c #7EA06D",
"L.	c #82A369",
"M.	c #48789C",
"N.	c #386DA8",
"O.	c #628B84",
"P.	c #749974",
"Q.	c #749975",
"R.	c #709579",
"S.	c #C8D72D",
"T.	c #FFFF2F",
"U.	c #3B6EA4",
"V.	c #43759E",
"W.	c #D3DF94",
"X.	c #265F9D",
"Y.	c #B9CBDF",
"Z.	c #799CC2",
"`.	c #41739F",
" +	c #F5F8AB",
".+	c #3066A1",
"++	c #57838C",
"@+	c #FFFF02",
"#+	c #FFFF08",
"$+	c #D1DDC0",
"%+	c #2D659E",
"&+	c #3167AD",
"*+	c #BFD036",
"=+	c #FFFF01",
"-+	c #FFFF35",
";+	c #648EC8",
">+	c #3B6FA5",
",+	c #2E65B0",
"'+	c #D7E221",
")+	c #3D71B4",
"!+	c #7297BF",
"~+	c #4C7BAD",
"{+	c #6C937C",
"]+	c #BFD0D5",
"^+	c #356AA6",
"/+	c #4A7AC3",
"(+	c #5280C6",
"_+	c #5280C5",
":+	c #608AB5",
"<+	c #CFDCBF",
"[+	c #FFFF3C",
"}+	c #759AE3",
"|+	c #5C87C7",
"1+	c #5E88C6",
"2+	c #4173A7",
"3+	c #376CA8",
"4+	c #A0B94F",
"5+	c #FFFF17",
"6+	c #6D94C9",
"7+	c #4878AB",
"8+	c #356AA5",
"9+	c #8FAD5E",
"0+	c #93AFD8",
"a+	c #386DA4",
"b+	c #4A7A98",
"c+	c #FFFF3D",
"d+	c #5985C5",
"e+	c #396EA5",
"f+	c #7A9C70",
"g+	c #96B2D0",
"h+	c #2F66A4",
"i+	c #9DB752",
"j+	c #FFFF19",
"k+	c #7A9ECF",
"l+	c #396EA4",
"m+	c #5884C5",
"n+	c #3A6EA4",
"o+	c #678F80",
"p+	c #ABC2CB",
"q+	c #9CB653",
"r+	c #FFFF18",
"s+	c #779BCD",
"t+	c #6B927D",
"u+	c #B0C6D1",
"v+	c #2B639E",
"w+	c #F5F8FB",
"x+	c #88A864",
"y+	c #87A6D1",
"z+	c #80A26A",
"A+	c #A1B9DA",
"B+	c #3066A0",
"C+	c #4C7BAC",
"D+	c #628B85",
"E+	c #ADC3C0",
"F+	c #3A6FA5",
"G+	c #4A7B97",
"H+	c #5783C7",
"I+	c #386DA7",
"J+	c #386CA6",
"K+	c #366BA5",
"L+	c #ADC344",
"M+	c #FFFF21",
"N+	c #7FA1D3",
"O+	c #4677AA",
"P+	c #779CC1",
"Q+	c #376CA7",
"R+	c #DFE88A",
"S+	c #58848C",
"T+	c #FEFE00",
"U+	c #CFDCBE",
"V+	c #C0D035",
"W+	c #FDFE00",
"X+	c #FDFD00",
"Y+	c #FDFD01",
"Z+	c #628CC7",
"`+	c #2E65AF",
" @	c #E6ED15",
".@	c #FFFF5F",
"+@	c #4E7DB8",
"@@	c #7096BE",
"#@	c #BDCEE1",
"$@	c #265FAA",
"%@	c #CCD92B",
"&@	c #FFFF31",
"*@	c #4878BC",
"=@	c #E1E9C2",
"-@	c #9FB7BB",
";@	c #A3BBBE",
">@	c #A2BABC",
",@	c #8CAAC7",
"'@	c #3369A2",
")@	c #53809D",
"!@	c #B2C6C0",
"~@	c #ACC2BD",
"{@	c #AAC0C4",
"]@	c #DEE74A",
"^@	c #54818F",
"/@	c #EDF2BB",
"(@	c #27609C",
"_@	c #B7CADE",
":@	c #FDFEFE",
"<@	c #69917E",
"[@	c #ADC3AA",
"}@	c #3369A0",
"|@	c #BECFC7",
"1@	c #2E659F",
"2@	c #386CA4",
"3@	c #3067AA",
"4@	c #B1C640",
"5@	c #C3D333",
"6@	c #9BB5DE",
"7@	c #FAFBFD",
"8@	c #86A6C7",
"9@	c #2C64AE",
"0@	c #DDE61C",
"a@	c #FFFF24",
"b@	c #4576BC",
"c@	c #608986",
"d@	c #396DA7",
"e@	c #7EA0C4",
"f@	c #F6F9FB",
"g@	c #3267A1",
"h@	c #517F92",
"i@	c #DEE75C",
"j@	c #2C64AC",
"k@	c #668EC7",
"l@	c #F9FA06",
"m@	c #8CABD7",
"n@	c #2C649F",
"o@	c #ADC3D9",
"p@	c #2D64A4",
"q@	c #BECF68",
"r@	c #4A7A94",
"s@	c #5D88CF",
"t@	c #E9EF13",
"u@	c #FFFF06",
"v@	c #D4DFE6",
"w@	c #28619C",
"x@	c #A6BED6",
"y@	c #3167AA",
"z@	c #99B456",
"A@	c #DBE52F",
"B@	c #FFFF1A",
"C@	c #F7F91C",
"D@	c #FFFF03",
"E@	c #E7EDE0",
"F@	c #3369A3",
"G@	c #6A92BB",
"H@	c #5F89B5",
"I@	c #3168A9",
"J@	c #7C9E6E",
"K@	c #FFFF1F",
"L@	c #D6E1E3",
"M@	c #346AA3",
"N@	c #5A85B3",
"O@	c #7196BE",
"P@	c #2D65A4",
"Q@	c #DDE610",
"R@	c #C3D3C6",
"S@	c #B0C540",
"T@	c #FFFF9F",
"U@	c #90ADD5",
"V@	c #2A629D",
"W@	c #6C93BC",
"X@	c #FEFEFE",
"Y@	c #AFC4DB",
"Z@	c #3067A9",
"`@	c #5783AF",
" #	c #3E70AB",
".#	c #4777B0",
"+#	c #28609C",
"@#	c #ABC1D9",
"##	c #F2F5F9",
"$#	c #85A5C7",
"%#	c #2F66A0",
"&#	c #3269A1",
"*#	c #3369A1",
"=#	c #2E66A0",
"-#	c #F0F4F8",
";#	c #F7F9FC",
">#	c #4576AA",
",#	c #3268A1",
"'#	c #4475AA",
")#	c #F1F5F8",
"                        . . . + + . . .                         ",
"                  . @ # $ % & * * & = - ; > .                   ",
"              . , ' ) ! ~ { ~ { ~ ~ { ~ ) ] ^ / .               ",
"            . ( _ : < ~ ~ ~ [ } | 1 ~ ~ 2 3 4 5 6 .             ",
"          . 7 8 9 0 a b ~ c d 0 0 e f ~ g h i j k l .           ",
"        . m n o 0 0 p q r s t u v 0 w x y z 0 0 A B C .         ",
"      . - D E 0 F 0 p G H 0 I J K L M N O z P Q 0 R S T .       ",
"    . U V o 0 W X 0 p G Y 0 Z `  ...+.@.O z #.$.%.0 &.*.=..     ",
"    -.;.>.0 ,.'.).0 p q !.~.t {.].0 ^./.O z #.(._.:.<.[.q ,     ",
"  . ^ }.|.1.2.3.4.0 p q 5.6.7.8.9.0.a.b.c.z #.d.e.f.0 g.h.i..   ",
"  . j.k.0 l.m.5.4.0 n.o.p.2 q.r.s.t.u.2 v.w.#.d.{ x.y.z.A.B.C.  ",
"  D.E.F.G.H.~ 5.4.0 I.J.K.L.M.{ N.O.P.Q.R.S.T.d.{ U.V.0 W.X.Y.  ",
". Z.`.0  +.+~ 5.++@+#+8.#+0 $+%+&+*+=+#+#+#+-+;+>+~ ,+'+1.)+!+. ",
". ~+{+0 ]+] ~ ~ ^+/+(+_+:+0 <+%+&+*+[+}+|+|+1+2+~ ~ 3+4+5+6+7+. ",
". 8+9+z.0+a+~ ~ ~ ~ ~ >+b+0 <+%+&+*+c+d+>+~ ~ ~ ~ ~ e+f+0 g+q . ",
"@ h+i+j+k+l+~ ~ ~ ~ ~ U.b+0 <+%+&+*+c+m+>+~ ~ ~ ~ ~ n+o+0 p+m.+ ",
"@ h+q+r+s+n+~ ~ ~ ~ ~ U.b+0 <+%+&+*+c+m+>+~ ~ ~ ~ ~ ~ t+0 u+v+w+",
". 8+x+0 y+3.~ ~ ~ ~ ~ U.b+0 <+%+&+*+c+m+>+~ ~ ~ ~ ~ 2 z+0 A+B+. ",
". C+D+0 E+& ~ ~ ~ F+F+5.G+0 <+%+&+*+c+H+I+J+K+b.~ ~ x.L+M+N+O+. ",
". P+Q+0 R+` ~ 5.S+0 T+T+T+0 U+%+&+V+0 W+X+Y+T.Z+{ ~ `+ @.@+@@@. ",
"  #@$@%@&@*@>+5.4.0 =@-@;@>@,@'@} )@!@~@{@]@T.d.{ 5.^@0 /@(@_@  ",
"  :@& <@0 [@}@5.4.0 |@1@b.b.2@~ ~ e+b.b.3@4@#.d.{ !.5@5+6@1@7@  ",
"  . 8@9@0@a@b@e.4.0 p q ~ ~ ~ ~ ~ ~ ~ ~ f z #.d.>+c@0 ,.d@e@.   ",
"    f@g@h@0 i@j@).0 p q ~ ~ ~ ~ ~ ~ ~ ~ f z #.k@1 l@-+m@n@/     ",
"    . o@p@x+0 q@r@0 p q ~ ~ ~ ~ ~ ~ ~ ~ f z #.s@t@u@v@w@x@.     ",
"      . @@y@z@0 A@0 p q ~ ~ ~ ~ ~ ~ ~ ~ f z B@C@D@E@F@G@.       ",
"        . H@I@J@0 0 p q ~ ~ ~ ~ ~ ~ ~ ~ f z 0 K@L@M@N@.         ",
"          . O@P@3 Q@R@q ~ ~ ~ ~ ~ ~ ~ ~ g S@T@U@V@W@X@          ",
"            . Y@1@Z@`@b.~ ~ ~ ~ ~ ~ ~ ~ ~  #.#+#@#.             ",
"              . ##$#%#&#~ { ~ ~ ~ ~ { { *#=#i.-#.               ",
"                  . ;#Y.@@>#,#%#%#,#'#T _@+ .                   ",
"                        . . X@)#-#:@. .                         "};
