<?xml version="1.0" encoding="utf-8"?>
<!-- Svg Vector Icons : http://www.onlinewebfonts.com/icon -->
<!DOCTYPE svg PUBLIC "-//W3C//DTD SVG 1.1//EN" "http://www.w3.org/Graphics/SVG/1.1/DTD/svg11.dtd">
<svg version="1.1" xmlns="http://www.w3.org/2000/svg" xmlns:xlink="http://www.w3.org/1999/xlink" x="0px" y="0px" viewBox="0 0 1000 1000" enable-background="new 0 0 1000 1000" xml:space="preserve">
<metadata> Svg Vector Icons : http://www.onlinewebfonts.com/icon </metadata>
<g><g transform="translate(0.000000,511.000000) scale(0.100000,-0.100000)"><path d="M4872.3,4972.6c-34.6-19.2-124.9-90.3-201.8-155.7c-745.6-632.3-1850.7-985.9-2813.5-903.2c-148,13.5-319,28.8-382.4,34.6c-99.9,7.7-124.9,3.8-182.6-36.5c-144.1-96.1-134.5,36.5-134.5-2014c0-1942.9,5.8-2125.5,88.4-2496.4c271-1214.6,1285.7-2511.7,2861.5-3655.2c465.1-338.3,795.6-536.2,893.6-536.2c134.5,0,701.5,372.8,1335.6,874.4c1253,995.5,2100.5,2119.7,2381.1,3161.3c119.1,440.1,115.3,367.1,121.1,2517.5c7.7,2204.3,17.3,2050.5-128.8,2148.5c-57.6,40.4-82.6,44.2-182.6,36.5c-63.4-5.8-234.5-21.1-380.5-34.6c-643.8-57.7-1395.2,88.4-2021.7,394c-274.8,132.6-641.9,370.9-832.1,540c-67.3,57.6-148,119.2-176.8,134.5C5039.5,5022.5,4945.4,5018.7,4872.3,4972.6z M5172.1,4236.5c613-451.6,1333.7-741.8,2106.3-851.3c153.8-21.1,361.3-32.7,620.7-32.7l390.1-1.9l-7.7-1768c-5.8-1985.2,0-1894.8-151.8-2352.2c-148-445.9-424.7-932.1-797.5-1397.1c-367.1-459.3-1010.8-1068.5-1585.5-1500.9c-295.9-222.9-714.9-507.4-745.6-507.4c-71.1,0-876.3,591.9-1287.6,945.5C2639.2-2303.2,1983.9-1353.9,1768.7-408.4c-40.4,178.7-42.3,217.2-48,1971.7l-7.7,1789.2h380.5c670.7-1.9,1218.4,107.6,1827.6,363.2c319,134.5,749.5,386.3,991.6,582.3c40.4,32.7,78.8,59.6,82.6,59.6C5001.1,4357.6,5079.9,4301.9,5172.1,4236.5z"/><path d="M6421.3,1882.4c-28.8-17.3-453.5-541.9-945.5-1162.7c-492-622.6-899.4-1131.9-905.2-1133.8c-5.8-1.9-219.1,259.4-474.7,582.3C3842.3,491,3609.7,769.7,3582.8,787c-107.6,71.1-303.6,26.9-376.7-84.6c-40.4-65.3-51.9-169.1-25-242.1c11.5-32.7,290.2-397.8,616.9-811c540-682.2,599.6-751.4,678.4-780.3c69.2-26.9,96.1-28.8,157.6-9.6c42.3,11.5,92.3,36.5,113.4,55.7c32.7,28.8,1916,2404.1,2040.9,2575.2c57.7,76.9,63.4,222.9,11.5,299.8C6723,1909.3,6530.8,1955.4,6421.3,1882.4z"/></g></g>
</svg>