<?xml version="1.0" encoding="utf-8"?>
<!-- Svg Vector Icons : http://www.onlinewebfonts.com/icon -->
<!DOCTYPE svg PUBLIC "-//W3C//DTD SVG 1.1//EN" "http://www.w3.org/Graphics/SVG/1.1/DTD/svg11.dtd">
<svg version="1.1" xmlns="http://www.w3.org/2000/svg" xmlns:xlink="http://www.w3.org/1999/xlink" x="0px" y="0px" viewBox="0 0 1000 1000" enable-background="new 0 0 1000 1000" xml:space="preserve">
<metadata> Svg Vector Icons : http://www.onlinewebfonts.com/icon </metadata>
<g><g><path d="M479.2,204.5c-211.3,0-383.2,171.9-383.2,383.2c0,211.3,171.9,383.2,383.2,383.2c211.3,0,383.2-172,383.2-383.2C862.4,376.4,690.4,204.5,479.2,204.5z M479.2,902.1c-173.4,0-314.4-141-314.4-314.5c0-173.4,141.1-314.4,314.4-314.4c173.4,0,314.4,141.1,314.4,314.4C793.6,761,652.6,902.1,479.2,902.1z"/><circle cx="113.2" cy="239.7" r="103.2"/><circle cx="823.5" cy="215.4" r="78.9"/><circle cx="940.6" cy="78.5" r="49.4"/><circle cx="306.6" cy="97.9" r="38.7"/><path d="M368.8,425.6c-48,0-85.4,13.4-112.2,40.3c-26.9,26.9-40.3,64.4-40.3,112.6c0,34.5,6.8,63.3,20.4,86.2c13.5,23,31.2,39.8,53.1,50.4c21.8,10.6,49.4,15.9,82.7,15.9c32.8,0,60.1-6.1,82.1-18.4c22-12.3,38.7-29.5,50.4-51.6c11.6-22.1,17.4-50.4,17.4-84.9c0-47.6-13.3-84.5-39.9-110.9C455.9,438.8,418,425.6,368.8,425.6z M415,643.6c-10.8,12.8-25.9,19.1-45.5,19.1c-19.1,0-34.1-6.5-45.2-19.6c-11.1-13.1-16.6-34.4-16.6-64.3c0-30.1,5.6-51.6,16.8-64.7c11.1-13,25.9-19.6,44.3-19.6c19.2,0,34.4,6.4,45.6,19.3c11.2,12.8,16.8,33.1,16.8,61C431.1,607.9,425.7,630.8,415,643.6z"/><path d="M622.9,672.3c3.7-3,11-9.5,21.9-17.1c18.4-13,31.1-25.5,38.1-36.3c7-10.9,10.5-22.5,10.5-34.4c0-11.2-3.1-21.5-9.1-30.5c-6.1-9.1-14.5-15.8-25-20.1c-10.6-4.4-25.5-6.6-44.6-6.6c-18.3,0-32.6,2.3-43,6.8c-10.3,4.5-18.4,11.1-24,19.7c-5.7,8.5-9.6,20.5-11.7,35.8l54.4,4.4c1.5-11,4.5-18.7,8.8-23.1c4.4-4.3,10.1-6.5,17-6.5c6.7,0,12.2,2.1,16.6,6.3c4.4,4.3,6.6,9.3,6.6,15.3c0,5.5-2.2,11.4-6.7,17.5c-4.5,6.1-14.6,15.1-30.5,26.9c-26.1,19.3-43.8,33.6-53.3,47.7c-9.5,14.2-15.1,43-17,43h148.8v-34.4h-70.7C614.8,686.7,619.2,675.3,622.9,672.3z"/></g></g>
</svg>