<?xml version="1.0" encoding="utf-8"?>
<!-- Svg Vector Icons : http://www.onlinewebfonts.com/icon -->
<!DOCTYPE svg PUBLIC "-//W3C//DTD SVG 1.1//EN" "http://www.w3.org/Graphics/SVG/1.1/DTD/svg11.dtd">
<svg version="1.1" xmlns="http://www.w3.org/2000/svg" xmlns:xlink="http://www.w3.org/1999/xlink" x="0px" y="0px" viewBox="0 0 1000 1000" enable-background="new 0 0 1000 1000" xml:space="preserve">
<metadata> Svg Vector Icons : http://www.onlinewebfonts.com/icon </metadata>
<g><g transform="translate(0.000000,511.000000) scale(0.100000,-0.100000)"><path d="M8860.9,4037.7c-64.5-36.9-1741.7-1403.1-7056.8-5750.5C322.7-2924.6,308.9-2938.5,269.7-3032.9c-76-182-16.1-410.1,142.8-532.2c117.5-87.5,338.7-103.7,460.8-30c48.4,27.7,499.9,387.1,1006.8,801.7c504.6,414.7,928.5,753.4,937.7,753.4c11.5,0,417-382.4,903.1-850.1c986.1-951.5,1006.8-967.7,1290.2-967.7c311,0,599,225.8,661.2,518.4c16.1,76,25.4,721.1,25.4,1893.8V333.1l1843.1,1509c1016,829.4,1863.8,1539,1889.2,1578.2c126.7,207.4,57.6,472.3-156.7,603.6C9165,4090.7,8969.2,4095.3,8860.9,4037.7z M5121.7-1666.7c0-1322.4-4.6-1509-36.9-1555.1c-18.4-27.7-53-50.7-76-50.7c-41.5,0-1707.2,1585.1-1704.9,1624.2c0,25.4,1771.7,1483.7,1801.6,1486C5114.8-162.3,5121.7-839.6,5121.7-1666.7z"/><path d="M4718.5,3722.1c-87.5-39.2-331.8-260.4-999.9-903.1l-882.4-850.1l-845.5-11.5l-843.2-11.5l-154.4-73.7c-177.4-82.9-311-209.6-451.6-421.6C94.6,773.1-20.6-93.2,230.5-865c117.5-364,472.3-960.7,543.7-916.9c18.4,9.2,124.4,94.4,239.6,188.9l207.3,170.5l-82.9,85.2C972.4-1169.1,808.8-828.1,728.2-494C666-226.8,672.9,222.5,742,482.8c99.1,375.5,343.3,801.8,499.9,866.3c62.2,25.3,255.7,32.3,951.5,32.3h875.5l923.9,893.9c509.2,490.7,951.5,900.8,979.2,912.3c39.2,16.1,66.8,13.8,89.9-9.2c32.3-25.3,36.9-122.1,36.9-718.8c0-380.1,9.2-686.6,18.4-681.9c11.5,4.6,147.5,110.6,301.8,237.3l281.1,230.4l-6.9,506.9c-6.9,472.3-11.5,516.1-62.2,629c-66.8,149.8-239.6,308.7-387.1,359.4C5082.5,3795.8,4859.1,3788.9,4718.5,3722.1z"/><path d="M8888.6,2176.2c-112.9-92.2-209.6-177.4-212-188.9c-4.6-11.5,41.5-94.4,99.1-182c131.3-191.2,308.7-555.2,387.1-792.5c117.5-357.1,159-624.4,159-1048.3c0-566.7-89.8-960.7-329.5-1451.4c-172.8-352.5-329.5-571.4-642.8-891.6c-156.7-161.3-294.9-306.4-304.1-322.5c-11.5-16.1-20.8-76-20.8-131.3c0-85.3,11.5-112.9,89.9-188.9c76-78.3,103.7-89.9,191.2-89.9c133.6,0,212,57.6,527.6,384.8c511.5,529.9,845.5,1168.1,1004.5,1916.8C9893.1-547,9900-473.3,9900-35.6c0,437.7-6.9,511.5-62.2,774.1c-71.4,336.4-163.6,612.8-304.1,912.3c-94.5,202.7-352.5,624.3-410.1,670.4C9102.8,2337.5,9036,2296,8888.6,2176.2z"/><path d="M7904.8,1374.4c-108.3-92.2-207.3-172.8-216.6-182c-6.9-9.2,16.1-66.8,55.3-126.7c108.3-168.2,205-391.7,260.3-594.4c71.4-260.3,71.4-751.1,2.3-1013.7c-99.1-368.6-380.1-829.4-626.7-1027.5c-53-43.8-110.6-106-129-140.5c-115.2-223.5,99.1-483.8,338.7-412.4c179.7,55.3,585.2,516.1,769.5,877.8c350.2,691.2,380.1,1520.6,82.9,2237.1c-73.7,179.7-292.6,550.6-320.2,550.6C8112.2,1540.3,8015.4,1466.6,7904.8,1374.4z"/><path d="M6884.2,538.1c-112.9-94.5-207.4-179.7-207.4-188.9c0-9.2,20.7-71.4,43.8-140.5c32.2-92.2,39.1-165.9,32.2-290.3c-13.8-205-71.4-329.5-239.6-518.4c-106-119.8-124.4-152.1-124.4-232.7c0-184.3,112.9-297.2,297.2-297.2c122.1,0,255.7,103.7,407.8,315.6c283.4,394,329.5,944.6,115.2,1370.8c-39.1,78.3-80.6,145.1-94.4,147.4C7103.1,708.6,6999.4,632.6,6884.2,538.1z"/></g></g>
</svg>