<?xml version="1.0" encoding="utf-8"?>
<!-- Svg Vector Icons : http://www.onlinewebfonts.com/icon -->
<!DOCTYPE svg PUBLIC "-//W3C//DTD SVG 1.1//EN" "http://www.w3.org/Graphics/SVG/1.1/DTD/svg11.dtd">
<svg version="1.1" xmlns="http://www.w3.org/2000/svg" xmlns:xlink="http://www.w3.org/1999/xlink" x="0px" y="0px" viewBox="0 0 1000 1000" enable-background="new 0 0 1000 1000" xml:space="preserve">
<metadata> Svg Vector Icons : http://www.onlinewebfonts.com/icon </metadata>
<g><g transform="translate(0.000000,511.000000) scale(0.100000,-0.100000)"><path d="M4592.6,4973.5c-381.4-118-712.8-399.5-917.1-785.4L3571,3992.8l-13.6-2492.5l-13.6-2492.5L3362.2-1201c-517.6-581.1-681-1470.9-404.1-2197.4C3448.5-4692.3,5064.7-5200.8,6227-4419.9C7298.4-3707.1,7498.2-2168,6640.1-1201l-181.6,208.9l-13.6,2492.5l-13.6,2492.5l-104.4,195.2c-281.5,531.2-758.2,830.8-1303,821.7C4851.4,5009.8,4656.1,4991.6,4592.6,4973.5z M5228.2,4047.3c59-31.8,158.9-127.1,213.4-208.8l104.4-154.4V1114.4v-2569.7l227-195.2c472.1-404.1,603.8-994.3,349.6-1520.9c-227-458.6-599.3-690.1-1121.4-690.1c-522.1,0-894.4,231.5-1121.4,690.1c-254.2,526.6-122.6,1116.8,349.6,1520.9l227,195.2v2569.7v2569.7l104.4,154.4c113.5,172.5,272.4,267.9,440.4,267.9C5064.7,4106.3,5164.6,4079.1,5228.2,4047.3z"/><path d="M4828.7,3734c-40.9-40.8-54.5-522.1-54.5-1879.6c0-1602.6,9.1-1838.7,72.6-1897.8c36.3-40.8,109-72.6,154.4-72.6s118,31.8,154.4,72.6c63.6,59,72.7,295.1,72.7,1897.8c0,1357.5-13.6,1838.7-54.5,1879.6c-31.8,31.8-109,54.5-172.5,54.5S4860.4,3765.8,4828.7,3734z"/><path d="M4124.9-2467.7c-213.4-236.1,72.6-826.3,490.3-1012.5c322.3-149.8,612.9-81.7,612.9,140.8c0,108.9-118.1,227-231.6,227c-245.2,0-494.9,272.4-494.9,540.2c0,90.8-122.6,186.2-240.6,186.2C4224.8-2386,4165.8-2422.3,4124.9-2467.7z"/></g></g>
</svg>