<?xml version="1.0" encoding="utf-8"?>
<!-- Svg Vector Icons : http://www.onlinewebfonts.com/icon -->
<!DOCTYPE svg PUBLIC "-//W3C//DTD SVG 1.1//EN" "http://www.w3.org/Graphics/SVG/1.1/DTD/svg11.dtd">
<svg version="1.1" xmlns="http://www.w3.org/2000/svg" xmlns:xlink="http://www.w3.org/1999/xlink" x="0px" y="0px" viewBox="0 0 1000 1000" enable-background="new 0 0 1000 1000" xml:space="preserve">
<metadata> Svg Vector Icons : http://www.onlinewebfonts.com/icon </metadata>
<g><path d="M588.4,463.3V141c0-61.8-51-131-119.1-131h-18.7c-68.2,0-119.2,69.1-119.2,131v313.8c-97.8,46.4-160.7,145.6-160.7,254c0,150.2,117.4,273.4,266.8,280.4c4.3,0.4,8.6,0.7,13,0.7h18.7c12,0,23.9-1.8,33.5-4.8C636.2,960.7,733,844.5,733,708.9C733,606.6,677.7,513,588.4,463.3z M353.7,480l9.7-4.2V141c0-45.7,38-98.9,87-98.9h18.7c49,0,87,53.1,87,98.9v341.8l8.8,4.5c70.8,36.2,118.8,102.5,132,178.7c-25.7-15.5-93-52.4-149.4-52.4c-55.6,0-113.9,34.7-167.9,34.7c-67.4,0-133.4-29-155.6-39.8C249,551.9,294.6,505.4,353.7,480z M495.1,954c-8.4,2.5-17.1,3.9-25.9,3.9h-18.7c-3.3,0-6.5-0.2-10.5-0.6C307,951,202.8,841.9,202.8,708.9c0-22.8,3.2-45.1,9.1-66.4c24.9,12.1,96.5,44,163.3,44c54.4,0,120.6-38.3,175.6-38.3c62.9,0,122.4,36.6,149.9,56.3c0,1.4,0.2,2.9,0.2,4.3C700.8,829,614.7,932,495.1,954z"/><path d="M636.6,106.4h192.8v32.1H636.6V106.4z"/><path d="M636.6,170.7h192.8v32.1H636.6V170.7z"/><path d="M636.6,234.9h192.8V267H636.6V234.9z"/><path d="M636.6,299.2h192.8v32.1H636.6V299.2z"/></g>
</svg>