<?xml version="1.0" encoding="UTF-8" standalone="no"?>
<svg
   xmlns:dc="http://purl.org/dc/elements/1.1/"
   xmlns:cc="http://creativecommons.org/ns#"
   xmlns:rdf="http://www.w3.org/1999/02/22-rdf-syntax-ns#"
   xmlns:svg="http://www.w3.org/2000/svg"
   xmlns="http://www.w3.org/2000/svg"
   xmlns:sodipodi="http://sodipodi.sourceforge.net/DTD/sodipodi-0.dtd"
   xmlns:inkscape="http://www.inkscape.org/namespaces/inkscape"
   sodipodi:docname="alarm_1.svg"
   inkscape:version="1.0 (4035a4fb49, 2020-05-01)"
   id="svg1346"
   version="1.1"
   viewBox="0 0 22.225 22.225001"
   height="84"
   width="84">
  <defs
     id="defs1340" />
  <sodipodi:namedview
     inkscape:window-maximized="1"
     inkscape:window-y="0"
     inkscape:window-x="1920"
     inkscape:window-height="1043"
     inkscape:window-width="1890"
     units="px"
     showgrid="false"
     inkscape:document-rotation="0"
     inkscape:current-layer="layer1"
     inkscape:document-units="px"
     inkscape:cy="95.467582"
     inkscape:cx="57.551326"
     inkscape:zoom="3.3521303"
     inkscape:pageshadow="2"
     inkscape:pageopacity="0.0"
     borderopacity="1.0"
     bordercolor="#666666"
     pagecolor="#ffffff"
     id="base" />
  <metadata
     id="metadata1343">
    <rdf:RDF>
      <cc:Work
         rdf:about="">
        <dc:format>image/svg+xml</dc:format>
        <dc:type
           rdf:resource="http://purl.org/dc/dcmitype/StillImage" />
        <dc:title></dc:title>
      </cc:Work>
    </rdf:RDF>
  </metadata>
  <g
     id="layer1"
     inkscape:groupmode="layer"
     inkscape:label="Шар 1">
    <path
       style="fill:#ffb3b3;stroke:#000000;stroke-width:0.521026;stroke-linecap:round;stroke-linejoin:round;stroke-miterlimit:4;stroke-dasharray:none;stroke-opacity:1;fill-opacity:1"
       id="path3160-7"
       d="m 21.170475,11.11413 a 10.057979,10.058203 0 1 1 -20.1159568,0 10.057979,10.058203 0 1 1 20.1159568,0 z"
       inkscape:connector-curvature="0" />
    <path
       style="line-height:normal;text-indent:0;text-align:start;text-decoration:none;text-decoration-line:none;text-decoration-style:solid;text-decoration-color:#000000;text-transform:none;isolation:auto;mix-blend-mode:normal;stroke-width:0.264582"
       d="m 11.377083,5.2916668 c -0.55726,0 -1.016,0.4587395 -1.016,1.016 v 0.475588 c -0.6583964,0.155183 -1.2342712,0.460383 -1.6774572,0.907522 -0.660983,0.666877 -1.031876,1.61326 -1.031876,2.7020552 v 2.641865 c 0,0.621153 -0.339756,1.410148 -0.690561,1.99562 l -0.607219,0.910827 a 0.33870052,0.33870052 0 0 0 0.28178,0.526522 h 3.0479998 c 0,0.929793 0.7635394,1.693332 1.6933334,1.693332 0.929795,0 1.693334,-0.763539 1.693334,-1.693332 h 3.048 a 0.33870052,0.33870052 0 0 0 0.281781,-0.526522 l -0.605233,-0.90752 -6.79e-4,-0.0013 c -0.354814,-0.591768 -0.691869,-1.32932 -0.691869,-1.951307 v -2.641863 c 0,-1.8172822 -1.081978,-3.2251412 -2.709334,-3.6426502 v -0.488837 c 0,-0.5572605 -0.458739,-1.016 -1.016,-1.016 z m 0,0.6773334 c 0.187807,0 0.338667,0.1508605 0.338667,0.3386666 v 0.377031 c -0.07502,-0.006 -0.148859,-0.01439 -0.225557,-0.01654 a 0.33870052,0.33870052 0 0 0 -0.113113,-0.02182 0.33870052,0.33870052 0 0 0 -0.107815,0.01919 c -0.07827,0.0019 -0.154144,0.0096 -0.230849,0.01521 v -0.373071 c 0,-0.1878061 0.150861,-0.3386666 0.338667,-0.3386666 z M 4.0891358,6.4690626 c -0.755615,1.2281832 -1.178719,2.6895612 -1.178719,4.2412704 0,1.551709 0.423104,3.013086 1.178719,4.24127 l 0.577453,-0.354542 c -0.689138,-1.12013 -1.0788392,-2.45817 -1.0788392,-3.886728 0,-1.4285572 0.3897012,-2.7665982 1.0788392,-3.8867282 z m 14.5758962,0 -0.577453,0.3545422 c 0.689136,1.12013 1.078837,2.458171 1.078837,3.8867282 0,1.428558 -0.389701,2.766598 -1.078837,3.886728 l 0.577453,0.354542 c 0.755614,-1.228184 1.178718,-2.689561 1.178718,-4.24127 0,-1.5517092 -0.423104,-3.0130872 -1.178718,-4.2412704 z m -7.287949,0.8546032 c 1.866302,0 3.048,1.241618 3.048,3.1154692 v 2.641864 c 0,0.850786 0.407973,1.665852 0.78912,2.301213 a 0.33870052,0.33870052 0 0 0 0.0086,0.01389 l 0.262596,0.394228 H 7.2687648 l 0.262598,-0.394228 a 0.33870052,0.33870052 0 0 0 0.0086,-0.01322 c 0.385375,-0.642179 0.789117,-1.497392 0.789117,-2.348178 v -2.641865 c 0,-0.9371062 0.309463,-1.6944962 0.835422,-2.2251442 0.5259588,-0.530649 1.2768232,-0.844022 2.2125782,-0.844022 z m -5.8195092,0.04763 c -0.616883,0.996118 -0.953824,2.104125 -0.953824,3.3390402 0,1.243643 0.381966,2.386624 0.951177,3.335073 l 0.581422,-0.348589 c -0.514522,-0.857322 -0.855265,-1.881812 -0.855265,-2.986484 0,-1.1133982 0.295007,-2.0821002 0.852619,-2.9825152 z m 11.6390202,0 -0.576131,0.356525 c 0.557614,0.900415 0.852621,1.869117 0.852621,2.9825152 0,1.104672 -0.340745,2.129162 -0.855266,2.986484 l 0.581422,0.348589 c 0.569212,-0.948449 0.951177,-2.09143 0.951177,-3.335073 0,-1.2349152 -0.33694,-2.3429222 -0.953823,-3.3390402 z m -6.835511,9.0963732 h 2.032 c 0,0.56034 -0.45566,1.016 -1.016,1.016 -0.560339,0 -1.016,-0.45566 -1.016,-1.016 z"
       font-weight="400"
       font-family="sans-serif"
       white-space="normal"
       overflow="visible"
       id="path949" />
  </g>
</svg>
