<?xml version="1.0" encoding="UTF-8" standalone="no"?>
<svg
   xmlns:dc="http://purl.org/dc/elements/1.1/"
   xmlns:cc="http://creativecommons.org/ns#"
   xmlns:rdf="http://www.w3.org/1999/02/22-rdf-syntax-ns#"
   xmlns:svg="http://www.w3.org/2000/svg"
   xmlns="http://www.w3.org/2000/svg"
   xmlns:sodipodi="http://sodipodi.sourceforge.net/DTD/sodipodi-0.dtd"
   xmlns:inkscape="http://www.inkscape.org/namespaces/inkscape"
   version="1.1"
   x="0px"
   y="0px"
   viewBox="0 0 96 48"
   enable-background="new 0 0 1000 1000"
   xml:space="preserve"
   id="svg14874"
   sodipodi:docname="AM_0.svg"
   width="96"
   height="48"
   inkscape:version="1.0rc1 (09960d6f05, 2020-04-09)"><defs
   id="defs14878" /><sodipodi:namedview
   showguides="false"
   inkscape:document-rotation="0"
   pagecolor="#ffffff"
   bordercolor="#666666"
   borderopacity="1"
   objecttolerance="10"
   gridtolerance="10"
   guidetolerance="10"
   inkscape:pageopacity="0"
   inkscape:pageshadow="2"
   inkscape:window-width="1890"
   inkscape:window-height="1043"
   id="namedview14876"
   showgrid="false"
   inkscape:zoom="3.2644314"
   inkscape:cx="119.52302"
   inkscape:cy="109.40435"
   inkscape:window-x="0"
   inkscape:window-y="0"
   inkscape:window-maximized="1"
   inkscape:current-layer="svg14874" />
<metadata
   id="metadata14866"> Svg Vector Icons : http://www.onlinewebfonts.com/icon <rdf:RDF><cc:Work
     rdf:about=""><dc:format>image/svg+xml</dc:format><dc:type
       rdf:resource="http://purl.org/dc/dcmitype/StillImage" /><dc:title /></cc:Work></rdf:RDF></metadata>
<rect
   style="fill:#fff8cf;stroke:#000000;stroke-width:0.999996;stroke-miterlimit:4;stroke-dasharray:none;stroke-opacity:1;fill-opacity:1"
   id="rect15441"
   width="95"
   height="47.000004"
   x="0.499998"
   y="0.499998" /><g
   id="g14872"
   transform="matrix(0.04241356,0,0,0.04489774,22.793786,1.5511723)"
   style="stroke-width:22.9158;fill-opacity:1"><g
     transform="matrix(0.1,0,0,-0.1,0,472)"
     id="g14870"
     style="stroke-width:22.9158;fill-opacity:1"><path
       d="m 5070.4,4582.3 c -139.7,-52.1 -277.3,-148 -356.5,-246 -81.3,-104.3 -164.7,-271.1 -181.4,-367 -8.3,-41.7 -20.8,-77.2 -29.2,-77.2 -6.3,0 -64.6,20.9 -127.2,43.8 -152.2,60.5 -400.3,64.6 -569.2,10.4 -231.4,-75.1 -444.1,-273.1 -529.6,-492.1 -35.4,-87.6 -37.5,-252.3 -47.9,-2124.7 L 3219,-701.3 2995.9,-409.4 c -313,408.7 -429.7,504.6 -715.4,579.7 -296.1,77.1 -588,-2.1 -802.8,-218.9 -225.2,-223.1 -306.5,-565.1 -210.6,-873.6 60.5,-193.9 896.6,-1739 1249,-2306.1 656.8,-1059.2 1155.1,-1524.2 1884.9,-1764 402.4,-131.4 815.3,-185.6 1392.8,-187.7 952.9,-2.1 1607.6,231.4 2135.1,759 341.9,342 550.4,706.8 704.7,1234.4 135.5,465 129.3,346.1 135.5,3000.4 8.3,2623 8.3,2631.4 -106.4,2871.1 -75,160.5 -177.2,271.1 -319,346.1 -225.2,120.9 -500.4,139.7 -734,50 -102.1,-37.5 -106.3,-37.5 -106.3,-2.1 0,135.5 -50,475.4 -85.5,577.6 -118.9,350.3 -398.3,548.4 -769.4,548.4 -135.5,0 -364.9,-52.1 -433.7,-95.9 -27.1,-18.8 -52.1,-29.2 -54.2,-25 -4.2,4.2 -33.4,56.3 -64.6,116.8 -77.1,141.8 -229.4,283.6 -381.6,354.5 -160.3,72.9 -477.2,87.5 -644,27 z m 462.8,-417 c 95.9,-43.8 183.5,-131.4 223.1,-221 20.8,-50 29.2,-442 37.5,-1872.4 l 10.4,-1811.9 58.4,-50 c 79.2,-68.8 200.2,-68.8 279.4,0 l 58.4,50 10.4,1613.8 c 8.3,1428.3 14.6,1620.1 43.8,1684.7 70.9,150.1 181.4,210.6 389.9,210.6 189.8,0 269,-45.9 348.2,-200.2 l 62.5,-125.1 10.4,-1678.5 c 8.3,-1342.8 16.7,-1688.9 37.5,-1726.4 73,-129.3 285.7,-118.8 371.2,16.7 10.4,18.8 22.9,519.2 29.2,1178.1 l 10.4,1146.8 58.4,120.9 c 81.3,162.6 168.9,208.5 377.4,198.1 252.3,-12.5 348.2,-127.2 389.9,-458.7 14.6,-116.8 18.8,-957 12.5,-2468.7 -8.3,-2222.7 -8.3,-2297.7 -52.1,-2520.8 -79.2,-419.1 -221,-777.7 -425.4,-1082.2 -112.6,-164.7 -367,-419.1 -533.8,-531.7 -483.7,-325.3 -1165.6,-452.4 -2005.8,-375.3 -767.3,68.8 -1265.6,277.3 -1680.6,698.5 -337.8,342 -621.3,752.7 -1088.4,1576.3 -331.5,579.6 -742.3,1336.5 -840.3,1547.1 -166.8,356.5 -4.2,679.7 341.9,679.7 129.3,0 229.4,-35.4 325.3,-116.7 37.5,-31.3 252.3,-300.3 479.6,-600.5 227.3,-300.3 437.9,-556.7 467.1,-573.4 68.8,-37.5 196,-16.7 252.3,39.6 43.8,41.7 43.8,54.2 54.2,2393.7 10.4,2333.2 10.4,2349.9 54.2,2433.3 102.2,196 371.1,277.3 569.2,173.1 52.1,-27.1 123,-83.4 156.4,-127.2 l 64.6,-81.3 10.4,-1511.7 10.4,-1511.7 68.8,-60.5 c 95.9,-85.5 202.3,-83.4 287.7,4.2 l 60.5,62.5 10.4,1818.2 10.4,1818.2 48,77.2 c 115,183.3 344.3,254.2 536.1,164.6 z"
       id="path14868"
       inkscape:connector-curvature="0"
       style="stroke-width:22.9158;fill-opacity:1" /></g></g>
</svg>
