<?xml version="1.0" encoding="utf-8"?>
<!-- Svg Vector Icons : http://www.onlinewebfonts.com/icon -->
<!DOCTYPE svg PUBLIC "-//W3C//DTD SVG 1.1//EN" "http://www.w3.org/Graphics/SVG/1.1/DTD/svg11.dtd">
<svg version="1.1" xmlns="http://www.w3.org/2000/svg" xmlns:xlink="http://www.w3.org/1999/xlink" x="0px" y="0px" viewBox="0 0 1000 1000" enable-background="new 0 0 1000 1000" xml:space="preserve">
<metadata> Svg Vector Icons : http://www.onlinewebfonts.com/icon </metadata>
<g><g transform="translate(0.000000,511.000000) scale(0.100000,-0.100000)"><path d="M5861.5,4009.7c-140-62.5-211.1-215.4-174.5-372.6c10.8-40.9,549.2-594.5,1753.2-1800.6L9178.5,98.3L7436-1644.2L5693.5-3386.6l-8.6-116.3c-15.1-206.8,116.3-333.8,323.1-312.3l105.5,8.6l1893.2,1893.2L9900-20.2V83.2c0,56-12.9,129.2-30.2,161.5c-49.5,90.5-3719.7,3747.7-3788.6,3773.5C6001.5,4046.3,5941.2,4044.2,5861.5,4009.7z"/><path d="M100,2122.9v-301.5h71.1c187.4,0,514.8-88.3,736.6-200.3c71.1-34.5,303.7-172.3,516.9-305.9C2262.5,794,2671.7,654,3373.8,651.9c672-4.3,1055.4,124.9,1830.8,609.5c409.2,256.3,784,441.5,1012.3,499.7c101.2,25.8,185.2,47.4,187.4,47.4c6.5,4.3-77.6,577.2-86.2,585.8c-15.1,15.1-316.6-53.8-499.7-112c-256.3-81.8-603.1-254.2-1010.1-501.8c-628.9-381.2-865.8-480.3-1234.2-516.9c-247.7-25.8-566.5,0-816.3,62.5c-232.6,60.3-583.7,234.8-980,484.6c-422.2,267.1-669.8,398.5-911.1,482.5c-211.1,75.4-499.7,131.4-661.2,131.4H100V2122.9z"/><path d="M100,315.9V18.6L246.5,5.7c342.5-28,616-142.2,1167.4-488.9c413.5-260.6,633.2-379.1,870.2-473.8c661.2-264.9,1458.2-273.6,2128-21.5c180.9,66.8,491.1,230.5,792.6,420c389.8,243.4,758.2,430.8,980,497.5c176.6,53.8,224,60.3,560,60.3c428.6,2.2,555.7-23.7,870.2-174.5c159.4-75.4,206.8-90.5,219.7-66.8c10.8,15.1,79.7,129.2,152.9,252c155.1,260.6,163.7,232.6-129.2,370.5c-389.9,185.2-745.2,247.7-1279.4,228.3c-641.8-21.5-992.9-144.3-1751.1-613.9c-445.8-275.7-678.5-396.3-904.6-473.8c-163.7-56-191.7-58.2-581.5-56c-381.2,0-422.2,4.3-603.1,58.1c-275.7,84-525.5,208.9-982.2,493.2c-428.6,269.2-577.2,348.9-824.9,448c-193.8,75.4-544.9,150.8-710.8,150.8H100V315.9z"/><path d="M100-1493.4v-297.2l168-12.9c320.9-25.8,607.4-146.5,1160.9-495.4c404.9-256.3,594.5-359.7,833.5-456.6c379.1-150.8,684.9-206.8,1132.9-206.8c680.6,0,1016.6,118.5,1938.5,674.2c579.4,348.9,848.6,454.5,1234.2,486.8l176.6,15.1l6.5,297.2l6.5,295.1h-178.8c-381.2,0-831.4-116.3-1223.4-312.3c-109.8-56-361.8-200.3-560-323.1c-417.8-258.5-644-376.9-876.6-456.6c-142.1-47.4-215.4-58.2-480.3-66.8c-618.2-19.4-930.5,88.3-1712.3,581.5C1084.3-1364.2,640.6-1194,227.1-1194H100V-1493.4z"/></g></g>
</svg>