<?xml version="1.0" encoding="UTF-8" standalone="no"?>
<svg
   xmlns:dc="http://purl.org/dc/elements/1.1/"
   xmlns:cc="http://creativecommons.org/ns#"
   xmlns:rdf="http://www.w3.org/1999/02/22-rdf-syntax-ns#"
   xmlns:svg="http://www.w3.org/2000/svg"
   xmlns="http://www.w3.org/2000/svg"
   xmlns:sodipodi="http://sodipodi.sourceforge.net/DTD/sodipodi-0.dtd"
   xmlns:inkscape="http://www.inkscape.org/namespaces/inkscape"
   width="84"
   height="84"
   viewBox="0 0 22.225 22.225001"
   version="1.1"
   id="svg1346"
   inkscape:version="1.0rc1 (09960d6f05, 2020-04-09)"
   sodipodi:docname="callreg_1.svg">
  <defs
     id="defs1340" />
  <sodipodi:namedview
     id="base"
     pagecolor="#ffffff"
     bordercolor="#666666"
     borderopacity="1.0"
     inkscape:pageopacity="0.0"
     inkscape:pageshadow="2"
     inkscape:zoom="3.7982627"
     inkscape:cx="57.551326"
     inkscape:cy="95.467582"
     inkscape:document-units="px"
     inkscape:current-layer="layer1"
     inkscape:document-rotation="0"
     showgrid="false"
     units="px"
     inkscape:window-width="1890"
     inkscape:window-height="1043"
     inkscape:window-x="0"
     inkscape:window-y="0"
     inkscape:window-maximized="1" />
  <metadata
     id="metadata1343">
    <rdf:RDF>
      <cc:Work
         rdf:about="">
        <dc:format>image/svg+xml</dc:format>
        <dc:type
           rdf:resource="http://purl.org/dc/dcmitype/StillImage" />
        <dc:title></dc:title>
      </cc:Work>
    </rdf:RDF>
  </metadata>
  <g
     inkscape:label="Шар 1"
     inkscape:groupmode="layer"
     id="layer1">
    <path
       inkscape:connector-curvature="0"
       d="m 21.170475,11.11413 a 10.057979,10.058203 0 1 1 -20.1159568,0 10.057979,10.058203 0 1 1 20.1159568,0 z"
       id="path3160-7"
       style="fill:#a9a9a9;stroke:#000000;stroke-width:0.521026;stroke-linecap:round;stroke-linejoin:round;stroke-miterlimit:4;stroke-dasharray:none;stroke-opacity:1;fill-opacity:1" />
    <g
       style="stroke-width:14.1766"
       transform="matrix(0.01727891,0,0,0.02015873,2.4730443,0.76855165)"
       id="g6211">
      <path
         style="stroke-width:14.1766"
         inkscape:connector-curvature="0"
         d="m 220,500 h 70 L 150,290 10,500 h 70 c 0,231.9 188.1,420 420,420 49.1,0 96.2,-8.9 140,-24.5 V 741.2 C 598.7,765.3 551.2,780 500,780 345.4,780 220,654.6 220,500 Z m 700,0 C 920,268.1 731.8,80 500,80 c -49.1,0 -96.2,8.9 -140,24.4 v 154.4 c 41.3,-24.1 88.8,-38.9 140,-38.9 154.6,0 280,125.4 280,280 h -70 l 140,210 140,-210 h -70 z"
         id="path6209" />
    </g>
  </g>
</svg>
