<?xml version="1.0" encoding="UTF-8" standalone="no"?>
<svg
   xmlns:dc="http://purl.org/dc/elements/1.1/"
   xmlns:cc="http://creativecommons.org/ns#"
   xmlns:rdf="http://www.w3.org/1999/02/22-rdf-syntax-ns#"
   xmlns:svg="http://www.w3.org/2000/svg"
   xmlns="http://www.w3.org/2000/svg"
   xmlns:sodipodi="http://sodipodi.sourceforge.net/DTD/sodipodi-0.dtd"
   xmlns:inkscape="http://www.inkscape.org/namespaces/inkscape"
   width="84"
   height="84"
   viewBox="0 0 22.225 22.225001"
   version="1.1"
   id="svg1346"
   inkscape:version="1.0rc1 (09960d6f05, 2020-04-09)"
   sodipodi:docname="cvit_off.svg">
  <defs
     id="defs1340" />
  <sodipodi:namedview
     id="base"
     pagecolor="#ffffff"
     bordercolor="#666666"
     borderopacity="1.0"
     inkscape:pageopacity="0.0"
     inkscape:pageshadow="2"
     inkscape:zoom="3.4946922"
     inkscape:cx="57.551326"
     inkscape:cy="95.467582"
     inkscape:document-units="px"
     inkscape:current-layer="layer1"
     inkscape:document-rotation="0"
     showgrid="false"
     units="px"
     inkscape:window-width="1890"
     inkscape:window-height="1043"
     inkscape:window-x="0"
     inkscape:window-y="0"
     inkscape:window-maximized="1" />
  <metadata
     id="metadata1343">
    <rdf:RDF>
      <cc:Work
         rdf:about="">
        <dc:format>image/svg+xml</dc:format>
        <dc:type
           rdf:resource="http://purl.org/dc/dcmitype/StillImage" />
        <dc:title></dc:title>
      </cc:Work>
    </rdf:RDF>
  </metadata>
  <g
     inkscape:label="Шар 1"
     inkscape:groupmode="layer"
     id="layer1">
    <path
       inkscape:connector-curvature="0"
       d="m 21.170475,11.11413 a 10.057979,10.058203 0 1 1 -20.1159568,0 10.057979,10.058203 0 1 1 20.1159568,0 z"
       id="path3160-7"
       style="fill:#fffaf9;stroke:#000000;stroke-width:0.521026;stroke-linecap:round;stroke-linejoin:round;stroke-miterlimit:4;stroke-dasharray:none;stroke-opacity:1;fill-opacity:1" />
    <g
       style="stroke-width:17.6372"
       transform="matrix(0.01349911,0,0,0.01667086,4.3002231,2.4242128)"
       id="g14154">
      <g
         style="stroke-width:17.6372"
         transform="matrix(0.1,0,0,-0.1,0,511)"
         id="g14152">
        <path
           style="stroke-width:17.6372"
           inkscape:connector-curvature="0"
           d="M 8860.9,4037.7 C 8796.4,4000.8 7119.2,2634.6 1804.1,-1712.8 322.7,-2924.6 308.9,-2938.5 269.7,-3032.9 c -76,-182 -16.1,-410.1 142.8,-532.2 117.5,-87.5 338.7,-103.7 460.8,-30 48.4,27.7 499.9,387.1 1006.8,801.7 504.6,414.7 928.5,753.4 937.7,753.4 11.5,0 417,-382.4 903.1,-850.1 986.1,-951.5 1006.8,-967.7 1290.2,-967.7 311,0 599,225.8 661.2,518.4 16.1,76 25.4,721.1 25.4,1893.8 V 333.1 l 1843.1,1509 c 1016,829.4 1863.8,1539 1889.2,1578.2 126.7,207.4 57.6,472.3 -156.7,603.6 -108.3,66.8 -304.1,71.4 -412.4,13.8 z M 5121.7,-1666.7 c 0,-1322.4 -4.6,-1509 -36.9,-1555.1 -18.4,-27.7 -53,-50.7 -76,-50.7 -41.5,0 -1707.2,1585.1 -1704.9,1624.2 0,25.4 1771.7,1483.7 1801.6,1486 9.3,0 16.2,-677.3 16.2,-1504.4 z"
           id="path14142" />
        <path
           style="stroke-width:17.6372"
           inkscape:connector-curvature="0"
           d="M 4718.5,3722.1 C 4631,3682.9 4386.7,3461.7 3718.6,2819 l -882.4,-850.1 -845.5,-11.5 -843.2,-11.5 -154.4,-73.7 C 815.7,1789.3 682.1,1662.6 541.5,1450.6 94.6,773.1 -20.6,-93.2 230.5,-865 c 117.5,-364 472.3,-960.7 543.7,-916.9 18.4,9.2 124.4,94.4 239.6,188.9 l 207.3,170.5 -82.9,85.2 c -165.8,168.2 -329.4,509.2 -410,843.3 -62.2,267.2 -55.3,716.5 13.8,976.8 99.1,375.5 343.3,801.8 499.9,866.3 62.2,25.3 255.7,32.3 951.5,32.3 h 875.5 l 923.9,893.9 c 509.2,490.7 951.5,900.8 979.2,912.3 39.2,16.1 66.8,13.8 89.9,-9.2 32.3,-25.3 36.9,-122.1 36.9,-718.8 0,-380.1 9.2,-686.6 18.4,-681.9 11.5,4.6 147.5,110.6 301.8,237.3 l 281.1,230.4 -6.9,506.9 c -6.9,472.3 -11.5,516.1 -62.2,629 -66.8,149.8 -239.6,308.7 -387.1,359.4 -161.4,55.1 -384.8,48.2 -525.4,-18.6 z"
           id="path14144" />
        <path
           style="stroke-width:17.6372"
           inkscape:connector-curvature="0"
           d="m 8888.6,2176.2 c -112.9,-92.2 -209.6,-177.4 -212,-188.9 -4.6,-11.5 41.5,-94.4 99.1,-182 131.3,-191.2 308.7,-555.2 387.1,-792.5 117.5,-357.1 159,-624.4 159,-1048.3 0,-566.7 -89.8,-960.7 -329.5,-1451.4 -172.8,-352.5 -329.5,-571.4 -642.8,-891.6 -156.7,-161.3 -294.9,-306.4 -304.1,-322.5 -11.5,-16.1 -20.8,-76 -20.8,-131.3 0,-85.3 11.5,-112.9 89.9,-188.9 76,-78.3 103.7,-89.9 191.2,-89.9 133.6,0 212,57.6 527.6,384.8 511.5,529.9 845.5,1168.1 1004.5,1916.8 55.3,262.5 62.2,336.2 62.2,773.9 0,437.7 -6.9,511.5 -62.2,774.1 -71.4,336.4 -163.6,612.8 -304.1,912.3 -94.5,202.7 -352.5,624.3 -410.1,670.4 -20.8,16.3 -87.6,-25.2 -235,-145 z"
           id="path14146" />
        <path
           style="stroke-width:17.6372"
           inkscape:connector-curvature="0"
           d="m 7904.8,1374.4 c -108.3,-92.2 -207.3,-172.8 -216.6,-182 -6.9,-9.2 16.1,-66.8 55.3,-126.7 108.3,-168.2 205,-391.7 260.3,-594.4 71.4,-260.3 71.4,-751.1 2.3,-1013.7 -99.1,-368.6 -380.1,-829.4 -626.7,-1027.5 -53,-43.8 -110.6,-106 -129,-140.5 -115.2,-223.5 99.1,-483.8 338.7,-412.4 179.7,55.3 585.2,516.1 769.5,877.8 350.2,691.2 380.1,1520.6 82.9,2237.1 -73.7,179.7 -292.6,550.6 -320.2,550.6 -9.1,-2.4 -105.9,-76.1 -216.5,-168.3 z"
           id="path14148" />
        <path
           style="stroke-width:17.6372"
           inkscape:connector-curvature="0"
           d="m 6884.2,538.1 c -112.9,-94.5 -207.4,-179.7 -207.4,-188.9 0,-9.2 20.7,-71.4 43.8,-140.5 32.2,-92.2 39.1,-165.9 32.2,-290.3 -13.8,-205 -71.4,-329.5 -239.6,-518.4 -106,-119.8 -124.4,-152.1 -124.4,-232.7 0,-184.3 112.9,-297.2 297.2,-297.2 122.1,0 255.7,103.7 407.8,315.6 283.4,394 329.5,944.6 115.2,1370.8 -39.1,78.3 -80.6,145.1 -94.4,147.4 -11.5,4.7 -115.2,-71.3 -230.4,-165.8 z"
           id="path14150" />
      </g>
    </g>
  </g>
</svg>
