<?xml version="1.0" encoding="UTF-8" standalone="no"?>
<svg
   xmlns:dc="http://purl.org/dc/elements/1.1/"
   xmlns:cc="http://creativecommons.org/ns#"
   xmlns:rdf="http://www.w3.org/1999/02/22-rdf-syntax-ns#"
   xmlns:svg="http://www.w3.org/2000/svg"
   xmlns="http://www.w3.org/2000/svg"
   xmlns:sodipodi="http://sodipodi.sourceforge.net/DTD/sodipodi-0.dtd"
   xmlns:inkscape="http://www.inkscape.org/namespaces/inkscape"
   sodipodi:docname="drive_0.svg"
   inkscape:version="1.0 (4035a4fb49, 2020-05-01)"
   id="svg1346"
   version="1.1"
   viewBox="0 0 22.225 22.225001"
   height="84"
   width="84">
  <defs
     id="defs1340" />
  <sodipodi:namedview
     inkscape:window-maximized="1"
     inkscape:window-y="0"
     inkscape:window-x="0"
     inkscape:window-height="1043"
     inkscape:window-width="1890"
     units="px"
     showgrid="false"
     inkscape:document-rotation="0"
     inkscape:current-layer="layer1"
     inkscape:document-units="px"
     inkscape:cy="95.467582"
     inkscape:cx="57.551326"
     inkscape:zoom="3.3521303"
     inkscape:pageshadow="2"
     inkscape:pageopacity="0.0"
     borderopacity="1.0"
     bordercolor="#666666"
     pagecolor="#ffffff"
     id="base" />
  <metadata
     id="metadata1343">
    <rdf:RDF>
      <cc:Work
         rdf:about="">
        <dc:format>image/svg+xml</dc:format>
        <dc:type
           rdf:resource="http://purl.org/dc/dcmitype/StillImage" />
        <dc:title></dc:title>
      </cc:Work>
    </rdf:RDF>
  </metadata>
  <g
     id="layer1"
     inkscape:groupmode="layer"
     inkscape:label="Шар 1">
    <path
       style="fill:#fffaf9;stroke:#000000;stroke-width:0.521026;stroke-linecap:round;stroke-linejoin:round;stroke-miterlimit:4;stroke-dasharray:none;stroke-opacity:1;fill-opacity:1"
       id="path3160-7"
       d="m 21.170475,11.11413 a 10.057979,10.058203 0 1 1 -20.1159568,0 10.057979,10.058203 0 1 1 20.1159568,0 z"
       inkscape:connector-curvature="0" />
    <g
       style="stroke-width:9.48148"
       transform="matrix(0.02790527,0,0,0.02790527,4.1554056,3.9966554)"
       id="g1712">
      <g
         style="stroke-width:9.48148"
         id="g1710">
        <g
           style="stroke-width:9.48148"
           id="g1708">
          <path
             style="stroke-width:9.48148"
             d="M 417.133,-1 H 92.867 C 68.973,-1 50.2,17.773 50.2,41.667 V 468.334 C 50.2,492.227 68.973,511 92.867,511 h 324.267 c 23.893,0 42.667,-18.773 42.667,-42.667 V 41.667 C 459.8,17.773 441.027,-1 417.133,-1 Z m 25.6,469.333 c 0,14.507 -11.093,25.6 -25.6,25.6 H 92.867 c -14.507,0 -25.6,-11.093 -25.6,-25.6 V 41.667 c 0,-14.507 11.093,-25.6 25.6,-25.6 h 324.267 c 14.507,0 25.6,11.093 25.6,25.6 v 426.666 z"
             id="path1688" />
          <path
             style="stroke-width:9.48148"
             d="M 374.467,41.667 H 135.533 c -14.507,0 -25.6,11.093 -25.6,25.6 v 68.267 c 0,14.507 11.093,25.6 25.6,25.6 h 238.933 c 14.507,0 25.6,-11.093 25.6,-25.6 V 67.267 c 0.001,-14.507 -11.093,-25.6 -25.599,-25.6 z M 383,135.533 c 0,5.12 -3.413,8.533 -8.533,8.533 H 135.533 c -5.12,0 -8.533,-3.413 -8.533,-8.533 V 67.267 c 0,-5.12 3.413,-8.533 8.533,-8.533 h 238.933 c 5.12,0 8.533,3.413 8.533,8.533 v 68.266 z"
             id="path1690" />
          <path
             style="stroke-width:9.48148"
             d="m 169.667,178.2 h -34.133 c -14.507,0 -25.6,11.093 -25.6,25.6 v 34.133 c 0,14.507 11.093,25.6 25.6,25.6 h 34.133 c 14.507,0 25.6,-11.093 25.6,-25.6 V 203.8 c 0,-14.507 -11.094,-25.6 -25.6,-25.6 z m 8.533,59.733 c 0,5.12 -3.413,8.533 -8.533,8.533 h -34.133 c -5.12,0 -8.533,-3.413 -8.533,-8.533 V 203.8 c 0,-5.12 3.413,-8.533 8.533,-8.533 h 34.133 c 5.12,0 8.533,3.413 8.533,8.533 z"
             id="path1692" />
          <path
             style="stroke-width:9.48148"
             d="m 272.067,178.2 h -34.133 c -14.507,0 -25.6,11.093 -25.6,25.6 v 34.133 c 0,14.507 11.093,25.6 25.6,25.6 h 34.133 c 14.507,0 25.6,-11.093 25.6,-25.6 V 203.8 c 0,-14.507 -11.094,-25.6 -25.6,-25.6 z m 8.533,59.733 c 0,5.12 -3.413,8.533 -8.533,8.533 h -34.133 c -5.12,0 -8.533,-3.413 -8.533,-8.533 V 203.8 c 0,-5.12 3.413,-8.533 8.533,-8.533 h 34.133 c 5.12,0 8.533,3.413 8.533,8.533 z"
             id="path1694" />
          <path
             style="stroke-width:9.48148"
             d="m 374.467,178.2 h -34.133 c -14.507,0 -25.6,11.093 -25.6,25.6 v 34.133 c 0,14.507 11.093,25.6 25.6,25.6 h 34.133 c 14.507,0 25.6,-11.093 25.6,-25.6 V 203.8 c 0,-14.507 -11.094,-25.6 -25.6,-25.6 z M 383,237.933 c 0,5.12 -3.413,8.533 -8.533,8.533 h -34.133 c -5.12,0 -8.533,-3.413 -8.533,-8.533 V 203.8 c 0,-5.12 3.413,-8.533 8.533,-8.533 h 34.133 c 5.12,0 8.533,3.413 8.533,8.533 z"
             id="path1696" />
          <path
             style="stroke-width:9.48148"
             d="m 169.667,280.6 h -34.133 c -14.507,0 -25.6,11.093 -25.6,25.6 v 34.133 c 0,14.507 11.093,25.6 25.6,25.6 h 34.133 c 14.507,0 25.6,-11.093 25.6,-25.6 V 306.2 c 0,-14.507 -11.094,-25.6 -25.6,-25.6 z m 8.533,59.733 c 0,5.12 -3.413,8.533 -8.533,8.533 h -34.133 c -5.12,0 -8.533,-3.413 -8.533,-8.533 V 306.2 c 0,-5.12 3.413,-8.533 8.533,-8.533 h 34.133 c 5.12,0 8.533,3.413 8.533,8.533 z"
             id="path1698" />
          <path
             style="stroke-width:9.48148"
             d="m 272.067,280.6 h -34.133 c -14.507,0 -25.6,11.093 -25.6,25.6 v 34.133 c 0,14.507 11.093,25.6 25.6,25.6 h 34.133 c 14.507,0 25.6,-11.093 25.6,-25.6 V 306.2 c 0,-14.507 -11.094,-25.6 -25.6,-25.6 z m 8.533,59.733 c 0,5.12 -3.413,8.533 -8.533,8.533 h -34.133 c -5.12,0 -8.533,-3.413 -8.533,-8.533 V 306.2 c 0,-5.12 3.413,-8.533 8.533,-8.533 h 34.133 c 5.12,0 8.533,3.413 8.533,8.533 z"
             id="path1700" />
          <path
             style="stroke-width:9.48148"
             d="m 169.667,383 h -34.133 c -14.507,0 -25.6,11.093 -25.6,25.6 v 34.133 c 0,14.507 11.093,25.6 25.6,25.6 h 34.133 c 14.507,0 25.6,-11.093 25.6,-25.6 V 408.6 c 0,-14.507 -11.094,-25.6 -25.6,-25.6 z m 8.533,59.733 c 0,5.12 -3.413,8.533 -8.533,8.533 h -34.133 c -5.12,0 -8.533,-3.413 -8.533,-8.533 V 408.6 c 0,-5.12 3.413,-8.533 8.533,-8.533 h 34.133 c 5.12,0 8.533,3.413 8.533,8.533 z"
             id="path1702" />
          <path
             style="stroke-width:9.48148"
             d="m 272.067,383 h -34.133 c -14.507,0 -25.6,11.093 -25.6,25.6 v 34.133 c 0,14.507 11.093,25.6 25.6,25.6 h 34.133 c 14.507,0 25.6,-11.093 25.6,-25.6 V 408.6 c 0,-14.507 -11.094,-25.6 -25.6,-25.6 z m 8.533,59.733 c 0,5.12 -3.413,8.533 -8.533,8.533 h -34.133 c -5.12,0 -8.533,-3.413 -8.533,-8.533 V 408.6 c 0,-5.12 3.413,-8.533 8.533,-8.533 h 34.133 c 5.12,0 8.533,3.413 8.533,8.533 z"
             id="path1704" />
          <path
             style="stroke-width:9.48148"
             d="m 374.467,280.6 h -34.133 c -14.507,0 -25.6,11.093 -25.6,25.6 v 136.533 c 0,14.507 11.093,25.6 25.6,25.6 h 34.133 c 14.507,0 25.6,-11.093 25.6,-25.6 V 306.2 c 0,-14.507 -11.094,-25.6 -25.6,-25.6 z M 383,442.733 c 0,5.12 -3.413,8.533 -8.533,8.533 h -34.133 c -5.12,0 -8.533,-3.413 -8.533,-8.533 V 306.2 c 0,-5.12 3.413,-8.533 8.533,-8.533 h 34.133 c 5.12,0 8.533,3.413 8.533,8.533 z"
             id="path1706" />
        </g>
      </g>
    </g>
  </g>
</svg>
