<?xml version="1.0" encoding="UTF-8" standalone="no"?>
<svg
   xmlns:dc="http://purl.org/dc/elements/1.1/"
   xmlns:cc="http://creativecommons.org/ns#"
   xmlns:rdf="http://www.w3.org/1999/02/22-rdf-syntax-ns#"
   xmlns:svg="http://www.w3.org/2000/svg"
   xmlns="http://www.w3.org/2000/svg"
   xmlns:sodipodi="http://sodipodi.sourceforge.net/DTD/sodipodi-0.dtd"
   xmlns:inkscape="http://www.inkscape.org/namespaces/inkscape"
   width="84"
   height="84"
   viewBox="0 0 22.225 22.225001"
   version="1.1"
   id="svg1346"
   inkscape:version="1.0rc1 (09960d6f05, 2020-04-09)"
   sodipodi:docname="exit_1.svg">
  <defs
     id="defs1340" />
  <sodipodi:namedview
     id="base"
     pagecolor="#ffffff"
     bordercolor="#666666"
     borderopacity="1.0"
     inkscape:pageopacity="0.0"
     inkscape:pageshadow="2"
     inkscape:zoom="5.3715546"
     inkscape:cx="36.993448"
     inkscape:cy="62.399022"
     inkscape:document-units="px"
     inkscape:current-layer="layer1"
     inkscape:document-rotation="0"
     showgrid="false"
     units="px"
     inkscape:window-width="1890"
     inkscape:window-height="1043"
     inkscape:window-x="0"
     inkscape:window-y="0"
     inkscape:window-maximized="1" />
  <metadata
     id="metadata1343">
    <rdf:RDF>
      <cc:Work
         rdf:about="">
        <dc:format>image/svg+xml</dc:format>
        <dc:type
           rdf:resource="http://purl.org/dc/dcmitype/StillImage" />
        <dc:title />
      </cc:Work>
    </rdf:RDF>
  </metadata>
  <g
     inkscape:label="Шар 1"
     inkscape:groupmode="layer"
     id="layer1">
    <path
       id="path2899"
       style="fill:#ffffff;fill-opacity:1;stroke:#000000;stroke-width:0.79375;stroke-linejoin:bevel;stroke-miterlimit:4;stroke-dasharray:none"
       d="M 1.1708858,7.9371431 A 9.7956761,9.7818903 0 0 1 20.276305,10.979815 v 0 A 9.7956761,9.7818903 0 0 1 1.1710033,14.022846"
       inkscape:connector-curvature="0" />
    <g
       style="stroke-width:6.81303;stroke-miterlimit:4;stroke-dasharray:none"
       id="layer1-5"
       transform="matrix(0.15544896,0,0,0.15523019,-1.4242618,-143.47962)" />
    <g
       id="g2267"
       transform="matrix(-0.03226625,0,0,-0.03226625,16.668745,18.917313)"
       style="stroke-width:8.2">
      <g
         id="g2265"
         style="stroke-width:8.2">
        <path
           id="path2263"
           d="m 464.344,207.418 0.768,0.168 H 135.888 L 239.384,103.862 c 5.068,-5.064 7.848,-11.924 7.848,-19.124 0,-7.2 -2.78,-14.012 -7.848,-19.088 L 223.28,49.538 c -5.064,-5.064 -11.812,-7.864 -19.008,-7.864 -7.2,0 -13.952,2.78 -19.016,7.844 L 7.844,226.914 C 2.76,231.998 -0.02,238.77 0,245.974 c -0.02,7.244 2.76,14.02 7.844,19.096 l 177.412,177.412 c 5.064,5.06 11.812,7.844 19.016,7.844 7.196,0 13.944,-2.788 19.008,-7.844 l 16.104,-16.112 c 5.068,-5.056 7.848,-11.808 7.848,-19.008 0,-7.196 -2.78,-13.592 -7.848,-18.652 L 134.72,284.406 h 329.992 c 14.828,0 27.288,-12.78 27.288,-27.6 v -22.788 c 0,-14.82 -12.828,-26.6 -27.656,-26.6 z"
           inkscape:connector-curvature="0"
           style="stroke-width:8.2" />
      </g>
    </g>
  </g>
</svg>
