<?xml version="1.0" encoding="utf-8"?>
<!-- Svg Vector Icons : http://www.onlinewebfonts.com/icon -->
<!DOCTYPE svg PUBLIC "-//W3C//DTD SVG 1.1//EN" "http://www.w3.org/Graphics/SVG/1.1/DTD/svg11.dtd">
<svg version="1.1" xmlns="http://www.w3.org/2000/svg" xmlns:xlink="http://www.w3.org/1999/xlink" x="0px" y="0px" viewBox="0 0 1000 1000" enable-background="new 0 0 1000 1000" xml:space="preserve">
<metadata> Svg Vector Icons : http://www.onlinewebfonts.com/icon </metadata>
<g><g transform="translate(0.000000,502.000000) scale(0.100000,-0.100000)"><path d="M2715.1,4805.6c-347.5-59.5-906.3-282.2-1203.9-481.9c-658.6-443.5-988.8-1036.8-990.7-1781.8c0-501.1,130.6-927.4,418.6-1365.2C1440.2,420.2,2317.7,49.6,4172.4-186.6l86.4-11.5l-144-90.2c-414.7-265-879.4-518.4-1075.2-587.5c-184.3-65.3-234.2-69.1-539.5-28.8c-562.6,74.9-794.9,96-1042.6,96c-906.3,0-1351.7-343.7-1357.5-1046.4c0-232.3,38.4-455.1,130.6-733.5c301.4-910.1,885.1-1528.4,1632-1728c165.1-44.2,230.4-49.9,497.3-51.8c228.5-1.9,347.5,7.7,464.7,32.6c334.1,71.1,650.9,205.4,931.2,389.8c184.3,121,487.7,424.3,597.1,593.3c343.7,535.7,585.6,1344,723.9,2417.3c19.2,155.5,38.4,288,42.2,289.9c15.4,13.4,384-604.8,514.6-864c238.1-470.4,241.9-499.2,159.4-1090.6c-44.2-314.9-51.8-433.9-53.8-810.3c0-495.4,15.4-591.4,132.5-846.7c111.4-236.2,288-397.5,541.5-491.6c174.7-63.3,541.5-59.5,818,9.6c710.4,176.6,1309.5,539.5,1653.2,1002.3c270.7,364.8,397.5,756.5,397.5,1228.8c0,501.1-136.3,942.7-426.3,1376.7c-337.9,505-816,812.2-1643.6,1054.1c-414.7,121-1140.5,257.3-1591.7,297.6c-76.8,7.7-140.2,19.2-140.2,25c0,5.8,115.2,86.4,255.4,178.6c729.6,478.1,1265.3,745,1490,745c38.4,0,224.6-21.1,414.7-48c1094.4-153.6,1622.4-88.3,1975.7,240c199.7,188.2,286.1,410.9,284.2,737.3c0,345.6-111.4,748.8-318.7,1173.2c-362.9,739.2-913.9,1188.5-1612.9,1313.3c-165.1,30.7-551,25-746.9-7.7c-489.6-86.4-977.3-339.9-1328.7-691.2c-518.4-516.5-873.6-1618.6-1015.7-3145c-13.4-155.5-30.7-288-34.6-291.9c-11.5-11.5-253.4,359.1-453.1,691.2c-199.7,334.1-353.3,647.1-409,835.2l-42.2,145.9l49.9,372.5c78.7,587.5,96,812.2,84.5,1104c-19.2,458.9-117.1,745-330.2,961.9C3502.3,4801.7,3172.1,4882.4,2715.1,4805.6z M3270,4404.3c403.2-142.1,495.4-633.6,336-1801c-57.6-420.5-53.8-583.7,13.4-789.1c97.9-293.8,414.7-879.4,754.6-1394c80.6-121,144-224.7,142.1-230.4c-7.7-17.3-437.8,28.8-812.2,86.4c-848.7,128.6-1549.5,353.3-1954.6,624C1277,1215.1,944.8,1839.1,916,2457.4c-23,493.4,122.9,889,460.8,1240.4c301.5,313,723.9,547.2,1232.7,677.8C2855.3,4440.8,3135.6,4452.3,3270,4404.3z M7908.9,4193.1C8586.6,4074,9107,3553.7,9389.2,2714.6c169-506.9,165.1-842.9-15.4-1038.7c-96-103.7-228.5-169-437.8-211.2c-207.4-40.3-723.9-28.8-1132.8,30.7c-539.5,74.9-589.5,78.7-745,46.1c-343.7-71-879.4-347.5-1562.9-804.5l-217-144l-5.8,57.6c-9.6,84.5,46.1,549.1,111.4,935.1c176.7,1044.5,476.2,1766.4,873.6,2108.2C6739.6,4104.8,7352.1,4289.1,7908.9,4193.1z M5681.6-184.6c1104-122.9,1993-391.7,2457.7-743.1c322.6-243.8,589.5-677.8,706.6-1146.3c32.6-132.5,40.3-220.8,38.4-443.5c0-243.8-5.8-299.5-51.8-447.4c-151.7-503.1-466.6-858.3-1006.1-1134.8c-238.1-121-533.8-226.6-754.6-272.6c-211.2-42.2-495.4-30.7-602.9,25c-153.6,80.6-253.5,226.6-311.1,460.8c-55.7,217-44.2,731.5,23,1205.8c72.9,503.1,72.9,698.9,3.8,900.5C6052.2-1402,5793-935.4,5299.5-188.5l-36.5,53.8l74.9-11.5C5380.2-150.1,5533.7-169.3,5681.6-184.6z M4731.2-443.9c0-122.9-90.2-793-144-1075.2c-182.4-944.7-435.9-1547.6-800.7-1893.2c-387.8-368.7-877.5-564.5-1411.2-564.5c-710.4,0-1261.5,385.9-1618.6,1136.7c-332.2,697-355.2,1251.9-59.5,1465c268.8,195.8,704.7,222.7,1624.4,96c412.8-57.6,579.9-55.7,777.6,9.6c303.4,99.8,912,430.1,1392,756.5c117.1,78.7,217,144,226.6,144C4725.4-367.1,4731.2-401.6,4731.2-443.9z"/></g></g>
</svg>