<?xml version="1.0" encoding="UTF-8" standalone="no"?>
<svg
   xmlns:dc="http://purl.org/dc/elements/1.1/"
   xmlns:cc="http://creativecommons.org/ns#"
   xmlns:rdf="http://www.w3.org/1999/02/22-rdf-syntax-ns#"
   xmlns:svg="http://www.w3.org/2000/svg"
   xmlns="http://www.w3.org/2000/svg"
   xmlns:sodipodi="http://sodipodi.sourceforge.net/DTD/sodipodi-0.dtd"
   xmlns:inkscape="http://www.inkscape.org/namespaces/inkscape"
   sodipodi:docname="option_1.svg"
   inkscape:version="1.0 (4035a4fb49, 2020-05-01)"
   id="svg1346"
   version="1.1"
   viewBox="0 0 22.225 22.225001"
   height="84"
   width="84">
  <defs
     id="defs1340" />
  <sodipodi:namedview
     inkscape:window-maximized="1"
     inkscape:window-y="0"
     inkscape:window-x="0"
     inkscape:window-height="1043"
     inkscape:window-width="1890"
     units="px"
     showgrid="false"
     inkscape:document-rotation="0"
     inkscape:current-layer="layer1"
     inkscape:document-units="px"
     inkscape:cy="95.467582"
     inkscape:cx="57.551326"
     inkscape:zoom="3.0842163"
     inkscape:pageshadow="2"
     inkscape:pageopacity="0.0"
     borderopacity="1.0"
     bordercolor="#666666"
     pagecolor="#ffffff"
     id="base" />
  <metadata
     id="metadata1343">
    <rdf:RDF>
      <cc:Work
         rdf:about="">
        <dc:format>image/svg+xml</dc:format>
        <dc:type
           rdf:resource="http://purl.org/dc/dcmitype/StillImage" />
        <dc:title></dc:title>
      </cc:Work>
    </rdf:RDF>
  </metadata>
  <g
     id="layer1"
     inkscape:groupmode="layer"
     inkscape:label="Шар 1">
    <path
       style="fill:#b3b3b3;stroke:#000000;stroke-width:0.521026;stroke-linecap:round;stroke-linejoin:round;stroke-miterlimit:4;stroke-dasharray:none;stroke-opacity:1;fill-opacity:1"
       id="path3160-7"
       d="m 21.170475,11.11413 a 10.057979,10.058203 0 1 1 -20.1159568,0 10.057979,10.058203 0 1 1 20.1159568,0 z"
       inkscape:connector-curvature="0" />
    <g
       style="stroke-width:15.3125"
       transform="matrix(0.01727891,0,0,0.01727891,2.4730443,2.4730443)"
       id="g1591">
      <path
         style="stroke-width:15.3125"
         d="m 500,295.8 c -112.6,0 -204.2,91.6 -204.2,204.2 0,112.6 91.6,204.2 204.2,204.2 112.6,0 204.1,-91.6 204.1,-204.2 C 704.2,387.4 612.6,295.8 500,295.8 Z m 0,367.5 C 409.9,663.3 336.6,590 336.6,500 c 0,-90.1 73.3,-163.3 163.4,-163.3 90.1,0 163.3,73.3 163.3,163.3 0,90 -73.2,163.3 -163.3,163.3 z"
         id="path1587" />
      <path
         style="stroke-width:15.3125"
         d="m 940.9,396.4 -93.5,-19 c -4.7,-13.7 -10.2,-27 -16.3,-39.9 L 884,257 c 16.1,-24.5 12.9,-57.2 -7.7,-78 l -58.7,-59.5 c -11.8,-12 -27.4,-18.1 -43.2,-18.1 -11.7,0 -23.5,3.4 -33.8,10.4 l -79.4,53.7 c -12.7,-6.2 -25.8,-11.8 -39.4,-16.6 L 603.1,59.8 C 597.5,30.8 572.4,10 543.3,10 h -83 c -29.1,0 -54.1,20.8 -59.8,49.7 l -18.7,89.1 c -13.5,4.8 -26.6,10.4 -39.3,16.6 L 263,111.8 c -10.3,-7 -22.1,-10.4 -33.8,-10.4 -15.8,0 -31.4,6.2 -43.2,18.1 L 127.3,179 c -20.6,20.8 -23.8,53.5 -7.6,78 l 52.9,80.5 c -6.2,12.9 -11.7,26.2 -16.3,39.9 L 59,396.4 C 30.5,402.1 10,427.5 10,457 v 84.1 c 0,29.5 20.5,54.9 49.1,60.6 l 97.3,19 c 4.7,13.7 10.2,27 16.3,39.9 l -52.9,80.5 c -16.1,24.5 -12.9,57.2 7.6,78 l 58.7,59.5 c 11.8,12 27.4,18.1 43.2,18.1 11.7,0 23.5,-3.4 33.8,-10.4 l 79.4,-53.7 c 12.7,6.2 25.8,11.8 39.4,16.6 l 18.7,91 c 5.7,28.9 30.7,49.7 59.8,49.7 h 83 c 29.1,0 54.1,-20.8 59.9,-49.7 l 18.7,-91 c 13.5,-4.8 26.6,-10.4 39.3,-16.6 l 79.4,53.7 c 10.3,7 22.1,10.4 33.8,10.4 15.8,0 31.4,-6.1 43.2,-18.1 l 58.7,-59.5 c 20.6,-20.8 23.8,-53.5 7.7,-78 l -52.9,-80.5 c 6.2,-12.9 11.7,-26.2 16.3,-39.9 l 93.5,-19 c 28.5,-5.8 49,-31.2 49,-60.6 V 457 c 0,-29.5 -20.5,-54.9 -49.1,-60.6 z m 8.3,144.7 c 0,10 -6.9,18.7 -16.3,20.6 l -93.5,19 -22.9,4.7 -7.6,22.1 c -4.1,11.9 -9,23.8 -14.5,35.5 l -10,20.8 12.6,19.2 52.9,80.5 c 5.6,8.4 4.5,19.7 -2.6,26.9 l -58.6,59.5 c -3.8,3.9 -8.8,6 -14.2,6 -2.7,0 -6.8,-0.6 -11,-3.4 L 684.1,798.8 664.5,785.6 643.3,796 c -11.6,5.7 -23.4,10.7 -34.9,14.8 l -21.8,7.7 -4.7,22.6 -18.8,91.4 c -1.9,9.7 -10.2,16.8 -19.8,16.8 h -83 c -9.5,0 -17.8,-7.1 -19.8,-17.1 l -18.7,-91 -4.7,-22.6 -21.8,-7.7 c -11.7,-4.1 -23.4,-9.1 -34.9,-14.7 l -21.2,-10.4 -19.6,13.3 -79.5,53.7 c -4.1,2.8 -8.2,3.3 -10.9,3.3 -5.3,0 -10.3,-2.1 -14.1,-6 l -58.7,-59.5 c -7.1,-7.2 -8.1,-18.4 -2.6,-26.9 l 52.9,-80.5 12.6,-19.2 -9.9,-20.8 c -5.7,-12 -10.6,-24 -14.6,-35.5 L 187.2,585.4 164,580.9 67.1,562 C 57.6,560.1 50.8,551.4 50.8,541.4 V 457 c 0,-10 6.9,-18.7 16,-20.6 l 97.3,-19 23.2,-4.5 7.6,-22.3 c 4.1,-11.9 8.9,-23.8 14.5,-35.5 l 9.9,-20.8 -12.7,-19.3 -52.9,-80.5 c -5.6,-8.4 -4.5,-19.7 2.6,-26.9 L 215,148.1 c 3.8,-3.8 8.8,-6 14.1,-6 3.9,0 7.7,1.2 11,3.4 l 79.4,53.7 19.6,13.2 21.2,-10.4 c 11.7,-5.7 23.5,-10.7 35,-14.7 l 21.7,-7.6 4.7,-22.5 18.8,-89.6 c 1.9,-9.7 10.2,-16.8 19.7,-16.8 h 83 c 9.6,0 17.9,7.1 19.9,17.3 l 18.7,89.1 4.7,22.5 21.7,7.6 c 11.7,4.1 23.4,9.1 34.9,14.7 l 21.2,10.4 19.6,-13.3 79.5,-53.7 c 4.1,-2.8 8.2,-3.4 10.9,-3.4 5.3,0 10.3,2.1 14.1,6 l 58.7,59.5 c 7.1,7.2 8.1,18.4 2.6,26.9 l -52.8,80.6 -12.6,19.2 9.9,20.8 c 5.7,12 10.6,23.9 14.6,35.5 l 7.6,22.1 22.9,4.7 93.6,19 c 9.5,1.9 16.3,10.6 16.3,20.6 z"
         id="path1589" />
    </g>
  </g>
</svg>
