<?xml version="1.0" encoding="UTF-8" standalone="no"?>
<svg
   xmlns:dc="http://purl.org/dc/elements/1.1/"
   xmlns:cc="http://creativecommons.org/ns#"
   xmlns:rdf="http://www.w3.org/1999/02/22-rdf-syntax-ns#"
   xmlns:svg="http://www.w3.org/2000/svg"
   xmlns="http://www.w3.org/2000/svg"
   xmlns:sodipodi="http://sodipodi.sourceforge.net/DTD/sodipodi-0.dtd"
   xmlns:inkscape="http://www.inkscape.org/namespaces/inkscape"
   width="84"
   height="84"
   viewBox="0 0 22.225 22.225001"
   version="1.1"
   id="svg1346"
   inkscape:version="1.0rc1 (09960d6f05, 2020-04-09)"
   sodipodi:docname="protect_on.svg">
  <defs
     id="defs1340" />
  <sodipodi:namedview
     id="base"
     pagecolor="#ffffff"
     bordercolor="#666666"
     borderopacity="1.0"
     inkscape:pageopacity="0.0"
     inkscape:pageshadow="2"
     inkscape:zoom="3.4946922"
     inkscape:cx="57.551326"
     inkscape:cy="95.467582"
     inkscape:document-units="px"
     inkscape:current-layer="layer1"
     inkscape:document-rotation="0"
     showgrid="false"
     units="px"
     inkscape:window-width="1890"
     inkscape:window-height="1043"
     inkscape:window-x="0"
     inkscape:window-y="0"
     inkscape:window-maximized="1" />
  <metadata
     id="metadata1343">
    <rdf:RDF>
      <cc:Work
         rdf:about="">
        <dc:format>image/svg+xml</dc:format>
        <dc:type
           rdf:resource="http://purl.org/dc/dcmitype/StillImage" />
        <dc:title />
      </cc:Work>
    </rdf:RDF>
  </metadata>
  <g
     inkscape:label="Шар 1"
     inkscape:groupmode="layer"
     id="layer1">
    <path
       inkscape:connector-curvature="0"
       d="m 21.170475,11.11413 a 10.057979,10.058203 0 1 1 -20.1159568,0 10.057979,10.058203 0 1 1 20.1159568,0 z"
       id="path3160-7"
       style="fill:#ddffdb;stroke:#000000;stroke-width:0.521026;stroke-linecap:round;stroke-linejoin:round;stroke-miterlimit:4;stroke-dasharray:none;stroke-opacity:1;fill-opacity:1" />
    <path
       inkscape:connector-curvature="0"
       id="path7468"
       d="m 11.181538,3.2395625 c -0.05978,0.033176 -0.215815,0.1560293 -0.34869,0.269034 C 9.5445257,4.6011477 7.6350234,5.2121331 5.9714013,5.0692358 5.7156721,5.0459091 5.4202012,5.0194722 5.3106523,5.0094504 5.1380351,4.9961456 5.0948376,5.0028844 4.9951378,5.0725188 4.7461474,5.23857 4.7627353,5.0094504 4.7627353,8.5525094 c 0,3.3571366 0.010022,3.6726516 0.1527463,4.3135296 0.4682609,2.098707 2.221561,4.339966 4.9443859,6.31582 0.8036465,0.584549 1.3747175,0.9265 1.5440515,0.9265 0.232402,0 1.212122,-0.644161 2.307783,-1.510876 2.165059,-1.720124 3.629454,-3.662629 4.114303,-5.46241 0.205793,-0.760449 0.199227,-0.634312 0.209249,-4.3499883 0.0133,-3.80881 0.02989,-3.5430589 -0.222554,-3.7123931 -0.09953,-0.069807 -0.142725,-0.076373 -0.315515,-0.063068 -0.109548,0.010022 -0.405192,0.036459 -0.657465,0.059785 C 15.727297,5.1691084 14.428953,4.9166622 13.346424,4.388616 12.871597,4.1594964 12.237285,3.7477379 11.908638,3.45555 11.792351,3.3560229 11.652909,3.2495843 11.603146,3.2231474 11.470443,3.1533402 11.307848,3.1599063 11.181538,3.2395625 Z m 0.518025,1.2719071 c 1.059202,0.7803197 2.3045,1.2817563 3.639475,1.4709613 0.265751,0.036459 0.624291,0.056502 1.072508,0.056502 l 0.674054,0.00328 -0.0133,3.0549272 c -0.01002,3.4302279 0,3.2740249 -0.262295,4.0643669 -0.25573,0.77047 -0.73384,1.610575 -1.378001,2.414049 -0.634312,0.793624 -1.746561,1.846261 -2.739585,2.593405 -0.511286,0.385149 -1.235276,0.876737 -1.288322,0.876737 -0.122854,0 -1.5141591,-1.022745 -2.2248444,-1.63373 -1.8562829,-1.600554 -2.9885758,-3.240849 -3.3604199,-4.874579 -0.069807,-0.308775 -0.07309,-0.3753 -0.082939,-3.4069005 L 5.7225837,6.0389333 H 6.3800496 C 7.5389522,6.0422163 8.485323,5.8530112 9.5379597,5.41136 10.08916,5.1789574 10.833021,4.7438722 11.251345,4.4052038 11.321152,4.3487015 11.387504,4.302221 11.39407,4.302221 c 0.01002,0 0.14618,0.096244 0.305493,0.2092486 z"
       style="stroke-width:0.0264585" />
    <path
       inkscape:connector-curvature="0"
       id="path7470"
       d="m 15.439482,7.2240218 c -0.08033,0.049708 -1.264987,1.557006 -2.637365,3.3407082 -1.37238,1.788878 -2.508776,3.252215 -2.524955,3.257674 -0.01617,0.0055 -0.6111553,-0.745316 -1.324123,-1.673084 -0.7073883,-0.92748 -1.3562,-1.728251 -1.4312346,-1.777957 -0.3001381,-0.204288 -0.8468581,-0.07729 -1.0507625,0.243075 -0.112691,0.187622 -0.1447691,0.485864 -0.069734,0.695611 0.032078,0.09395 0.8094804,1.142972 1.7207735,2.330193 1.5062685,1.960121 1.6725165,2.158949 1.8923216,2.241985 0.193025,0.07728 0.26806,0.08274 0.439609,0.02758 0.11799,-0.03304 0.257459,-0.104877 0.316313,-0.160032 0.09121,-0.08275 5.344468,-6.907544 5.692864,-7.3991543 0.160947,-0.2209517 0.176847,-0.6404439 0.03208,-0.8613956 -0.214228,-0.3424933 -0.75035,-0.4749494 -1.055787,-0.2652033 z"
       style="fill:#007f06;fill-opacity:1;stroke-width:0.0264586" />
  </g>
</svg>
