<?xml version="1.0" encoding="UTF-8" standalone="no"?>
<svg
   xmlns:dc="http://purl.org/dc/elements/1.1/"
   xmlns:cc="http://creativecommons.org/ns#"
   xmlns:rdf="http://www.w3.org/1999/02/22-rdf-syntax-ns#"
   xmlns:svg="http://www.w3.org/2000/svg"
   xmlns="http://www.w3.org/2000/svg"
   xmlns:sodipodi="http://sodipodi.sourceforge.net/DTD/sodipodi-0.dtd"
   xmlns:inkscape="http://www.inkscape.org/namespaces/inkscape"
   sodipodi:docname="protect_0.svg"
   inkscape:version="1.0rc1 (09960d6f05, 2020-04-09)"
   id="svg1346"
   version="1.1"
   viewBox="0 0 22.225 22.225001"
   height="84"
   width="84">
  <defs
     id="defs1340" />
  <sodipodi:namedview
     inkscape:window-maximized="1"
     inkscape:window-y="0"
     inkscape:window-x="0"
     inkscape:window-height="1043"
     inkscape:window-width="1890"
     units="px"
     showgrid="false"
     inkscape:document-rotation="0"
     inkscape:current-layer="layer1"
     inkscape:document-units="px"
     inkscape:cy="95.467582"
     inkscape:cx="57.551326"
     inkscape:zoom="3.643317"
     inkscape:pageshadow="2"
     inkscape:pageopacity="0.0"
     borderopacity="1.0"
     bordercolor="#666666"
     pagecolor="#ffffff"
     id="base" />
  <metadata
     id="metadata1343">
    <rdf:RDF>
      <cc:Work
         rdf:about="">
        <dc:format>image/svg+xml</dc:format>
        <dc:type
           rdf:resource="http://purl.org/dc/dcmitype/StillImage" />
        <dc:title></dc:title>
      </cc:Work>
    </rdf:RDF>
  </metadata>
  <g
     id="layer1"
     inkscape:groupmode="layer"
     inkscape:label="Шар 1">
    <path
       style="fill:#ffffff;stroke:#000000;stroke-width:0.521026;stroke-linecap:round;stroke-linejoin:round;stroke-miterlimit:4;stroke-dasharray:none;stroke-opacity:1;fill-opacity:1"
       id="path3160-7"
       d="m 21.170475,11.11413 a 10.057979,10.058203 0 1 1 -20.1159568,0 10.057979,10.058203 0 1 1 20.1159568,0 z"
       inkscape:connector-curvature="0" />
    <g
       style="stroke-width:15.3125"
       id="g7474"
       transform="matrix(0.01727895,0,0,0.01727895,2.762691,3.0021745)">
      <g
         style="stroke-width:15.3125"
         transform="matrix(0.1,0,0,-0.1,0,511)"
         id="g7472">
        <path
           style="stroke-width:15.3125"
           d="m 4872.3,4972.6 c -34.6,-19.2 -124.9,-90.3 -201.8,-155.7 C 3924.9,4184.6 2819.8,3831 1857,3913.7 c -148,13.5 -319,28.8 -382.4,34.6 -99.9,7.7 -124.9,3.8 -182.6,-36.5 -144.1,-96.1 -134.5,36.5 -134.5,-2014 0,-1942.9 5.8,-2125.5 88.4,-2496.4 271,-1214.6 1285.7,-2511.7 2861.5,-3655.2 465.1,-338.3 795.6,-536.2 893.6,-536.2 134.5,0 701.5,372.8 1335.6,874.4 1253,995.5 2100.5,2119.7 2381.1,3161.3 119.1,440.1 115.3,367.1 121.1,2517.5 7.7,2204.3 17.3,2050.5 -128.8,2148.5 -57.6,40.4 -82.6,44.2 -182.6,36.5 -63.4,-5.8 -234.5,-21.1 -380.5,-34.6 -643.8,-57.7 -1395.2,88.4 -2021.7,394 -274.8,132.6 -641.9,370.9 -832.1,540 -67.3,57.6 -148,119.2 -176.8,134.5 -76.8,40.4 -170.9,36.6 -244,-9.5 z m 299.8,-736.1 c 613,-451.6 1333.7,-741.8 2106.3,-851.3 153.8,-21.1 361.3,-32.7 620.7,-32.7 l 390.1,-1.9 -7.7,-1768 c -5.8,-1985.2 0,-1894.8 -151.8,-2352.2 -148,-445.9 -424.7,-932.1 -797.5,-1397.1 -367.1,-459.3 -1010.8,-1068.5 -1585.5,-1500.9 -295.9,-222.9 -714.9,-507.4 -745.6,-507.4 -71.1,0 -876.3,591.9 -1287.6,945.5 -1074.3,926.3 -1729.6,1875.6 -1944.8,2821.1 -40.4,178.7 -42.3,217.2 -48,1971.7 l -7.7,1789.2 h 380.5 c 670.7,-1.9 1218.4,107.6 1827.6,363.2 319,134.5 749.5,386.3 991.6,582.3 40.4,32.7 78.8,59.6 82.6,59.6 5.8,0 84.6,-55.7 176.8,-121.1 z"
           id="path7468"
           inkscape:connector-curvature="0" />
        <path
           style="stroke-width:15.3125"
           d="M 6421.3,1882.4 C 6392.5,1865.1 5967.8,1340.5 5475.8,719.7 4983.8,97.1 4576.4,-412.2 4570.6,-414.1 4564.8,-416 4351.5,-154.7 4095.9,168.2 3842.3,491 3609.7,769.7 3582.8,787 c -107.6,71.1 -303.6,26.9 -376.7,-84.6 -40.4,-65.3 -51.9,-169.1 -25,-242.1 11.5,-32.7 290.2,-397.8 616.9,-811 540,-682.2 599.6,-751.4 678.4,-780.3 69.2,-26.9 96.1,-28.8 157.6,-9.6 42.3,11.5 92.3,36.5 113.4,55.7 32.7,28.8 1916,2404.1 2040.9,2575.2 57.7,76.9 63.4,222.9 11.5,299.8 -76.8,119.2 -269,165.3 -378.5,92.3 z"
           id="path7470"
           inkscape:connector-curvature="0" />
      </g>
    </g>
  </g>
</svg>
