<?xml version="1.0" encoding="UTF-8" standalone="no"?>
<svg
   xmlns:dc="http://purl.org/dc/elements/1.1/"
   xmlns:cc="http://creativecommons.org/ns#"
   xmlns:rdf="http://www.w3.org/1999/02/22-rdf-syntax-ns#"
   xmlns:svg="http://www.w3.org/2000/svg"
   xmlns="http://www.w3.org/2000/svg"
   xmlns:sodipodi="http://sodipodi.sourceforge.net/DTD/sodipodi-0.dtd"
   xmlns:inkscape="http://www.inkscape.org/namespaces/inkscape"
   sodipodi:docname="reg2_0.svg"
   inkscape:version="1.0 (4035a4fb49, 2020-05-01)"
   id="svg1346"
   version="1.1"
   viewBox="0 0 22.225 22.225001"
   height="84"
   width="84">
  <defs
     id="defs1340" />
  <sodipodi:namedview
     inkscape:window-maximized="1"
     inkscape:window-y="0"
     inkscape:window-x="0"
     inkscape:window-height="1043"
     inkscape:window-width="1890"
     units="px"
     showgrid="false"
     inkscape:document-rotation="0"
     inkscape:current-layer="layer1"
     inkscape:document-units="px"
     inkscape:cy="95.467582"
     inkscape:cx="57.551326"
     inkscape:zoom="3.3521303"
     inkscape:pageshadow="2"
     inkscape:pageopacity="0.0"
     borderopacity="1.0"
     bordercolor="#666666"
     pagecolor="#ffffff"
     id="base" />
  <metadata
     id="metadata1343">
    <rdf:RDF>
      <cc:Work
         rdf:about="">
        <dc:format>image/svg+xml</dc:format>
        <dc:type
           rdf:resource="http://purl.org/dc/dcmitype/StillImage" />
        <dc:title></dc:title>
      </cc:Work>
    </rdf:RDF>
  </metadata>
  <g
     id="layer1"
     inkscape:groupmode="layer"
     inkscape:label="Шар 1">
    <path
       style="fill:#fffaf9;stroke:#000000;stroke-width:0.521026;stroke-linecap:round;stroke-linejoin:round;stroke-miterlimit:4;stroke-dasharray:none;stroke-opacity:1;fill-opacity:1"
       id="path3160-7"
       d="m 21.170475,11.11413 a 10.057979,10.058203 0 1 1 -20.1159568,0 10.057979,10.058203 0 1 1 20.1159568,0 z"
       inkscape:connector-curvature="0" />
    <g
       style="stroke-width:16.1888"
       transform="matrix(0.01619876,0,0,0.01648972,3.0130125,2.8676869)"
       id="g1514">
      <g
         style="stroke-width:16.1888"
         transform="matrix(0.1,0,0,-0.1,0,502)"
         id="g1512">
        <path
           style="stroke-width:16.1888"
           d="M 2715.1,4805.6 C 2367.6,4746.1 1808.8,4523.4 1511.2,4323.7 852.6,3880.2 522.4,3286.9 520.5,2541.9 520.5,2040.8 651.1,1614.5 939.1,1176.7 1440.2,420.2 2317.7,49.6 4172.4,-186.6 l 86.4,-11.5 -144,-90.2 c -414.7,-265 -879.4,-518.4 -1075.2,-587.5 -184.3,-65.3 -234.2,-69.1 -539.5,-28.8 -562.6,74.9 -794.9,96 -1042.6,96 -906.3,0 -1351.7,-343.7 -1357.5,-1046.4 0,-232.3 38.4,-455.1 130.6,-733.5 301.4,-910.1 885.1,-1528.4 1632,-1728 165.1,-44.2 230.4,-49.9 497.3,-51.8 228.5,-1.9 347.5,7.7 464.7,32.6 334.1,71.1 650.9,205.4 931.2,389.8 184.3,121 487.7,424.3 597.1,593.3 343.7,535.7 585.6,1344 723.9,2417.3 19.2,155.5 38.4,288 42.2,289.9 15.4,13.4 384,-604.8 514.6,-864 238.1,-470.4 241.9,-499.2 159.4,-1090.6 -44.2,-314.9 -51.8,-433.9 -53.8,-810.3 0,-495.4 15.4,-591.4 132.5,-846.7 111.4,-236.2 288,-397.5 541.5,-491.6 174.7,-63.3 541.5,-59.5 818,9.6 710.4,176.6 1309.5,539.5 1653.2,1002.3 270.7,364.8 397.5,756.5 397.5,1228.8 0,501.1 -136.3,942.7 -426.3,1376.7 -337.9,505 -816,812.2 -1643.6,1054.1 -414.7,121 -1140.5,257.3 -1591.7,297.6 -76.8,7.7 -140.2,19.2 -140.2,25 0,5.8 115.2,86.4 255.4,178.6 729.6,478.1 1265.3,745 1490,745 38.4,0 224.6,-21.1 414.7,-48 1094.4,-153.6 1622.4,-88.3 1975.7,240 199.7,188.2 286.1,410.9 284.2,737.3 0,345.6 -111.4,748.8 -318.7,1173.2 -362.9,739.2 -913.9,1188.5 -1612.9,1313.3 -165.1,30.7 -551,25 -746.9,-7.7 C 6732,4490.8 6244.3,4237.3 5892.9,3886 5374.5,3369.5 5019.3,2267.4 4877.2,741 c -13.4,-155.5 -30.7,-288 -34.6,-291.9 -11.5,-11.5 -253.4,359.1 -453.1,691.2 -199.7,334.1 -353.3,647.1 -409,835.2 l -42.2,145.9 49.9,372.5 c 78.7,587.5 96,812.2 84.5,1104 -19.2,458.9 -117.1,745 -330.2,961.9 -240.2,241.9 -570.4,322.6 -1027.4,245.8 z M 3270,4404.3 c 403.2,-142.1 495.4,-633.6 336,-1801 -57.6,-420.5 -53.8,-583.7 13.4,-789.1 97.9,-293.8 414.7,-879.4 754.6,-1394 80.6,-121 144,-224.7 142.1,-230.4 -7.7,-17.3 -437.8,28.8 -812.2,86.4 -848.7,128.6 -1549.5,353.3 -1954.6,624 -472.3,314.9 -804.5,938.9 -833.3,1557.2 -23,493.4 122.9,889 460.8,1240.4 301.5,313 723.9,547.2 1232.7,677.8 245.8,65.2 526.1,76.7 660.5,28.7 z M 7908.9,4193.1 C 8586.6,4074 9107,3553.7 9389.2,2714.6 c 169,-506.9 165.1,-842.9 -15.4,-1038.7 -96,-103.7 -228.5,-169 -437.8,-211.2 -207.4,-40.3 -723.9,-28.8 -1132.8,30.7 -539.5,74.9 -589.5,78.7 -745,46.1 C 6714.5,1470.5 6178.8,1194 5495.3,737 l -217,-144 -5.8,57.6 c -9.6,84.5 46.1,549.1 111.4,935.1 176.7,1044.5 476.2,1766.4 873.6,2108.2 482.1,410.9 1094.6,595.2 1651.4,499.2 z M 5681.6,-184.6 c 1104,-122.9 1993,-391.7 2457.7,-743.1 322.6,-243.8 589.5,-677.8 706.6,-1146.3 32.6,-132.5 40.3,-220.8 38.4,-443.5 0,-243.8 -5.8,-299.5 -51.8,-447.4 -151.7,-503.1 -466.6,-858.3 -1006.1,-1134.8 -238.1,-121 -533.8,-226.6 -754.6,-272.6 -211.2,-42.2 -495.4,-30.7 -602.9,25 -153.6,80.6 -253.5,226.6 -311.1,460.8 -55.7,217 -44.2,731.5 23,1205.8 72.9,503.1 72.9,698.9 3.8,900.5 -132.4,378.2 -391.6,844.8 -885.1,1591.7 l -36.5,53.8 74.9,-11.5 c 42.3,-3.9 195.8,-23.1 343.7,-38.4 z m -950.4,-259.3 c 0,-122.9 -90.2,-793 -144,-1075.2 -182.4,-944.7 -435.9,-1547.6 -800.7,-1893.2 -387.8,-368.7 -877.5,-564.5 -1411.2,-564.5 -710.4,0 -1261.5,385.9 -1618.6,1136.7 -332.2,697 -355.2,1251.9 -59.5,1465 268.8,195.8 704.7,222.7 1624.4,96 412.8,-57.6 579.9,-55.7 777.6,9.6 303.4,99.8 912,430.1 1392,756.5 117.1,78.7 217,144 226.6,144 7.6,1.9 13.4,-32.6 13.4,-74.9 z"
           id="path1510" />
      </g>
    </g>
  </g>
</svg>
