<?xml version="1.0" encoding="UTF-8" standalone="no"?>
<svg
   xmlns:dc="http://purl.org/dc/elements/1.1/"
   xmlns:cc="http://creativecommons.org/ns#"
   xmlns:rdf="http://www.w3.org/1999/02/22-rdf-syntax-ns#"
   xmlns:svg="http://www.w3.org/2000/svg"
   xmlns="http://www.w3.org/2000/svg"
   xmlns:sodipodi="http://sodipodi.sourceforge.net/DTD/sodipodi-0.dtd"
   xmlns:inkscape="http://www.inkscape.org/namespaces/inkscape"
   width="84"
   height="84"
   viewBox="0 0 22.225 22.225001"
   version="1.1"
   id="svg1346"
   inkscape:version="1.0 (4035a4fb49, 2020-05-01)"
   sodipodi:docname="reg4_1.svg">
  <defs
     id="defs1340" />
  <sodipodi:namedview
     id="base"
     pagecolor="#ffffff"
     bordercolor="#666666"
     borderopacity="1.0"
     inkscape:pageopacity="0.0"
     inkscape:pageshadow="2"
     inkscape:zoom="3.2153841"
     inkscape:cx="57.551326"
     inkscape:cy="95.467582"
     inkscape:document-units="px"
     inkscape:current-layer="layer1"
     inkscape:document-rotation="0"
     showgrid="false"
     units="px"
     inkscape:window-width="1890"
     inkscape:window-height="1043"
     inkscape:window-x="0"
     inkscape:window-y="0"
     inkscape:window-maximized="1" />
  <metadata
     id="metadata1343">
    <rdf:RDF>
      <cc:Work
         rdf:about="">
        <dc:format>image/svg+xml</dc:format>
        <dc:type
           rdf:resource="http://purl.org/dc/dcmitype/StillImage" />
        <dc:title />
      </cc:Work>
    </rdf:RDF>
  </metadata>
  <g
     inkscape:label="Шар 1"
     inkscape:groupmode="layer"
     id="layer1">
    <path
       inkscape:connector-curvature="0"
       d="m 21.170475,11.11413 a 10.057979,10.058203 0 1 1 -20.1159568,0 10.057979,10.058203 0 1 1 20.1159568,0 z"
       id="path3160-7"
       style="fill:#b3b3b3;stroke:#000000;stroke-width:0.521026;stroke-linecap:round;stroke-linejoin:round;stroke-miterlimit:4;stroke-dasharray:none;stroke-opacity:1;fill-opacity:1" />
    <g
       style="stroke-width:16.4901"
       transform="matrix(0.00158926,0,0,-0.00161989,3.1662001,9.6599851)"
       id="g3342">
      <path
         style="stroke-width:16.4901"
         d="M 4457.1,4790.5 C 2650.5,4508.7 1325.5,2971.9 1323.5,1161.3 c 0,-999.2 375.7,-1910.5 1079.2,-2614 475.6,-475.6 1043.2,-797.4 1708.7,-967.2 107.9,-28 213.8,-52 233.8,-52 34,0 36,-30 36,-439.7 v -439.7 l -1880.6,-4 -1880.6,-6 -58,-65.9 c -95.9,-105.9 -67.9,-243.8 62,-307.8 65.9,-34 201.8,-36 2018.5,-34 1454.9,0 1966.5,6 2018.4,24 129.9,44 139.9,91.9 139.9,689.5 v 523.6 h 199.8 199.8 v -519.6 c 0,-591.5 8,-639.5 127.9,-689.5 60,-26 351.7,-30 2004.5,-30 1229.1,0 1960.5,8 2006.4,20 93.9,26 137.9,77.9 151.9,175.9 8,65.9 2,87.9 -50,145.9 l -60,67.9 -1880.6,6 -1880.5,4 v 439.7 c 0,409.7 2,439.7 36,439.7 60,0 423.7,97.9 603.5,163.9 1137.3,413.6 2012.7,1380.9 2306.4,2550 323.7,1283 -64,2646 -1009.2,3551.3 -571.6,547.6 -1251.1,881.3 -2032.5,999.2 -251.7,38 -823.3,36 -1067.1,-2 z m 865.3,-389.7 c 275.8,-28 463.6,-67.9 713.4,-149.9 1171.2,-391.7 2012.5,-1396.9 2204.4,-2636 34,-221.8 30,-757.4 -10,-985.2 -215.8,-1285 -1161.1,-2328.2 -2398.1,-2644 -535.6,-137.9 -1127.1,-137.9 -1662.7,0 -613.5,155.9 -1195.1,515.6 -1620.8,1001.2 -411.7,467.7 -673.5,1023.3 -777.4,1642.8 -40,227.8 -44,763.4 -10,985.2 191.8,1239.1 1033.2,2244.3 2204.3,2636 445.6,147.9 891.3,197.9 1356.9,149.9 z"
         id="path3336" />
      <path
         style="stroke-width:16.4901"
         d="m 6267.7,2618.2 c -405.7,-299.8 -829.4,-613.5 -941.3,-699.5 -203.8,-153.9 -205.8,-155.9 -341.7,-161.9 -633.5,-32 -819.4,-857.3 -257.8,-1155.1 69.9,-38 115.9,-46 273.8,-46 157.9,0 203.8,8 273.8,46 199.8,105.9 327.8,311.8 331.7,529.6 l 2,123.9 541.6,729.4 c 299.8,401.7 609.5,819.4 689.5,929.3 79.9,109.9 153.9,211.8 165.9,225.8 10,12 14,24 10,24 -6.1,0 -341.8,-245.8 -747.5,-545.5 z"
         id="path3338" />
      <path
         style="stroke-width:16.4901"
         d="m 574.1,-4636.2 c -34,-28 -56,-72 -64,-125.9 -10,-72 -2,-91.9 50,-149.9 l 60,-68 h 4380.6 4380.6 l 60,68 c 52,57.9 60,77.9 50,149.9 -8,53.9 -30,97.9 -64,125.9 l -51.9,46 H 5000.7 626 Z"
         id="path3340" />
    </g>
  </g>
</svg>
