<?xml version="1.0" encoding="UTF-8" standalone="no"?>
<svg
   xmlns:dc="http://purl.org/dc/elements/1.1/"
   xmlns:cc="http://creativecommons.org/ns#"
   xmlns:rdf="http://www.w3.org/1999/02/22-rdf-syntax-ns#"
   xmlns:svg="http://www.w3.org/2000/svg"
   xmlns="http://www.w3.org/2000/svg"
   xmlns:sodipodi="http://sodipodi.sourceforge.net/DTD/sodipodi-0.dtd"
   xmlns:inkscape="http://www.inkscape.org/namespaces/inkscape"
   sodipodi:docname="reg5_1.svg"
   inkscape:version="1.0 (4035a4fb49, 2020-05-01)"
   id="svg1346"
   version="1.1"
   viewBox="0 0 22.225 22.225001"
   height="84"
   width="84">
  <defs
     id="defs1340" />
  <sodipodi:namedview
     inkscape:window-maximized="1"
     inkscape:window-y="0"
     inkscape:window-x="0"
     inkscape:window-height="1043"
     inkscape:window-width="1890"
     units="px"
     showgrid="false"
     inkscape:document-rotation="0"
     inkscape:current-layer="layer1"
     inkscape:document-units="px"
     inkscape:cy="31.596362"
     inkscape:cx="49.948719"
     inkscape:zoom="4.3617405"
     inkscape:pageshadow="2"
     inkscape:pageopacity="0.0"
     borderopacity="1.0"
     bordercolor="#666666"
     pagecolor="#ffffff"
     id="base" />
  <metadata
     id="metadata1343">
    <rdf:RDF>
      <cc:Work
         rdf:about="">
        <dc:format>image/svg+xml</dc:format>
        <dc:type
           rdf:resource="http://purl.org/dc/dcmitype/StillImage" />
        <dc:title />
      </cc:Work>
    </rdf:RDF>
  </metadata>
  <g
     id="layer1"
     inkscape:groupmode="layer"
     inkscape:label="Шар 1">
    <path
       style="fill:#b3b3b3;stroke:#000000;stroke-width:0.521026;stroke-linecap:round;stroke-linejoin:round;stroke-miterlimit:4;stroke-dasharray:none;stroke-opacity:1;fill-opacity:1"
       id="path3160-7"
       d="m 21.170475,11.11413 a 10.057979,10.058203 0 1 1 -20.1159568,0 10.057979,10.058203 0 1 1 20.1159568,0 z"
       inkscape:connector-curvature="0" />
    <g
       id="g7038"
       transform="matrix(0.01709892,0,0,0.01727891,3.092206,2.7376276)"
       style="stroke-width:15.3929">
      <path
         id="path7030"
         d="m 598,550 c 59.2,44.8 98,115.1 98,195 0,135.3 -109.7,245 -245,245 -135.3,0 -245,-109.7 -245,-245 0,-79.9 38.8,-150.1 98,-195 V 157 C 304,75.8 369.9,10 451,10 532.2,10 598,75.8 598,157 Z M 549,157 c 0,-54.1 -43.9,-98 -98,-98 -54.1,0 -98,43.9 -98,98 v 419.6 c -58.3,33.9 -98,96.1 -98,168.4 0,108.2 87.8,196 196,196 108.2,0 196,-87.8 196,-196 0,-72.3 -39.7,-134.5 -98,-168.4 z"
         style="stroke-width:15.3929" />
      <path
         id="path7032"
         d="m 304,745 c 0,81.2 65.8,147 147,147 81.2,0 147,-65.8 147,-147 0,-81.2 -65.8,-147 -147,-147 -81.2,0 -147,65.8 -147,147 z"
         style="stroke-width:15.3929" />
      <path
         id="path7034"
         d="m 403.3,353 h 95.4 v 294 h -95.4 z"
         style="stroke-width:15.3929" />
      <path
         id="path7036"
         d="M 794,132.5 C 794,173.1 761.1,206 720.5,206 679.9,206 647,173.1 647,132.5 647,91.9 679.9,59 720.5,59 761.1,59 794,91.9 794,132.5 Z M 720.5,108 C 707,108 696,119 696,132.5 696,146 707,157 720.5,157 734,157 745,146 745,132.5 745,119 734,108 720.5,108 Z"
         style="stroke-width:15.3929" />
    </g>
  </g>
</svg>
