<?xml version="1.0" encoding="UTF-8" standalone="no"?>
<svg
   xmlns:dc="http://purl.org/dc/elements/1.1/"
   xmlns:cc="http://creativecommons.org/ns#"
   xmlns:rdf="http://www.w3.org/1999/02/22-rdf-syntax-ns#"
   xmlns:svg="http://www.w3.org/2000/svg"
   xmlns="http://www.w3.org/2000/svg"
   xmlns:sodipodi="http://sodipodi.sourceforge.net/DTD/sodipodi-0.dtd"
   xmlns:inkscape="http://www.inkscape.org/namespaces/inkscape"
   width="84"
   height="84"
   viewBox="0 0 22.225 22.225001"
   version="1.1"
   id="svg1346"
   inkscape:version="1.0 (4035a4fb49, 2020-05-01)"
   sodipodi:docname="reg5_0.svg">
  <defs
     id="defs1340" />
  <sodipodi:namedview
     id="base"
     pagecolor="#ffffff"
     bordercolor="#666666"
     borderopacity="1.0"
     inkscape:pageopacity="0.0"
     inkscape:pageshadow="2"
     inkscape:zoom="2.9583993"
     inkscape:cx="57.551326"
     inkscape:cy="95.467582"
     inkscape:document-units="px"
     inkscape:current-layer="layer1"
     inkscape:document-rotation="0"
     showgrid="false"
     units="px"
     inkscape:window-width="1890"
     inkscape:window-height="1043"
     inkscape:window-x="0"
     inkscape:window-y="0"
     inkscape:window-maximized="1" />
  <metadata
     id="metadata1343">
    <rdf:RDF>
      <cc:Work
         rdf:about="">
        <dc:format>image/svg+xml</dc:format>
        <dc:type
           rdf:resource="http://purl.org/dc/dcmitype/StillImage" />
        <dc:title />
      </cc:Work>
    </rdf:RDF>
  </metadata>
  <g
     inkscape:label="Шар 1"
     inkscape:groupmode="layer"
     id="layer1">
    <path
       inkscape:connector-curvature="0"
       d="m 21.170475,11.11413 a 10.057979,10.058203 0 1 1 -20.1159568,0 10.057979,10.058203 0 1 1 20.1159568,0 z"
       id="path3160-7"
       style="fill:#fffaf9;stroke:#000000;stroke-width:0.521026;stroke-linecap:round;stroke-linejoin:round;stroke-miterlimit:4;stroke-dasharray:none;stroke-opacity:1;fill-opacity:1" />
    <g
       transform="scale(0)"
       id="g5231">
      <path
         d="M 588.4,463.3 V 141 C 588.4,79.2 537.4,10 469.3,10 H 450.6 C 382.4,10 331.4,79.1 331.4,141 v 313.8 c -97.8,46.4 -160.7,145.6 -160.7,254 0,150.2 117.4,273.4 266.8,280.4 4.3,0.4 8.6,0.7 13,0.7 h 18.7 c 12,0 23.9,-1.8 33.5,-4.8 C 636.2,960.7 733,844.5 733,708.9 733,606.6 677.7,513 588.4,463.3 Z m -234.7,16.7 9.7,-4.2 V 141 c 0,-45.7 38,-98.9 87,-98.9 h 18.7 c 49,0 87,53.1 87,98.9 v 341.8 l 8.8,4.5 c 70.8,36.2 118.8,102.5 132,178.7 -25.7,-15.5 -93,-52.4 -149.4,-52.4 -55.6,0 -113.9,34.7 -167.9,34.7 -67.4,0 -133.4,-29 -155.6,-39.8 25,-56.6 70.6,-103.1 129.7,-128.5 z m 141.4,474 c -8.4,2.5 -17.1,3.9 -25.9,3.9 h -18.7 c -3.3,0 -6.5,-0.2 -10.5,-0.6 C 307,951 202.8,841.9 202.8,708.9 c 0,-22.8 3.2,-45.1 9.1,-66.4 24.9,12.1 96.5,44 163.3,44 54.4,0 120.6,-38.3 175.6,-38.3 62.9,0 122.4,36.6 149.9,56.3 0,1.4 0.2,2.9 0.2,4.3 C 700.8,829 614.7,932 495.1,954 Z"
         id="path5221" />
      <path
         d="m 636.6,106.4 h 192.8 v 32.1 H 636.6 Z"
         id="path5223" />
      <path
         d="m 636.6,170.7 h 192.8 v 32.1 H 636.6 Z"
         id="path5225" />
      <path
         d="M 636.6,234.9 H 829.4 V 267 H 636.6 Z"
         id="path5227" />
      <path
         d="m 636.6,299.2 h 192.8 v 32.1 H 636.6 Z"
         id="path5229" />
    </g>
    <g
       style="stroke-width:15.3929"
       transform="matrix(0.01709892,0,0,0.01727891,3.0922058,2.7376276)"
       id="g7038">
      <path
         style="stroke-width:15.3929"
         d="m 598,550 c 59.2,44.8 98,115.1 98,195 0,135.3 -109.7,245 -245,245 -135.3,0 -245,-109.7 -245,-245 0,-79.9 38.8,-150.1 98,-195 V 157 C 304,75.8 369.9,10 451,10 532.2,10 598,75.8 598,157 Z M 549,157 c 0,-54.1 -43.9,-98 -98,-98 -54.1,0 -98,43.9 -98,98 v 419.6 c -58.3,33.9 -98,96.1 -98,168.4 0,108.2 87.8,196 196,196 108.2,0 196,-87.8 196,-196 0,-72.3 -39.7,-134.5 -98,-168.4 z"
         id="path7030" />
      <path
         style="stroke-width:15.3929"
         d="m 304,745 c 0,81.2 65.8,147 147,147 81.2,0 147,-65.8 147,-147 0,-81.2 -65.8,-147 -147,-147 -81.2,0 -147,65.8 -147,147 z"
         id="path7032" />
      <path
         style="stroke-width:15.3929"
         d="m 403.3,353 h 95.4 v 294 h -95.4 z"
         id="path7034" />
      <path
         style="stroke-width:15.3929"
         d="M 794,132.5 C 794,173.1 761.1,206 720.5,206 679.9,206 647,173.1 647,132.5 647,91.9 679.9,59 720.5,59 761.1,59 794,91.9 794,132.5 Z M 720.5,108 C 707,108 696,119 696,132.5 696,146 707,157 720.5,157 734,157 745,146 745,132.5 745,119 734,108 720.5,108 Z"
         id="path7036" />
    </g>
  </g>
</svg>
