<?xml version="1.0" encoding="UTF-8" standalone="no"?>
<svg
   xmlns:dc="http://purl.org/dc/elements/1.1/"
   xmlns:cc="http://creativecommons.org/ns#"
   xmlns:rdf="http://www.w3.org/1999/02/22-rdf-syntax-ns#"
   xmlns:svg="http://www.w3.org/2000/svg"
   xmlns="http://www.w3.org/2000/svg"
   xmlns:sodipodi="http://sodipodi.sourceforge.net/DTD/sodipodi-0.dtd"
   xmlns:inkscape="http://www.inkscape.org/namespaces/inkscape"
   width="84"
   height="84"
   viewBox="0 0 22.225 22.225001"
   version="1.1"
   id="svg1346"
   inkscape:version="1.0 (4035a4fb49, 2020-05-01)"
   sodipodi:docname="reg6_1.svg">
  <defs
     id="defs1340" />
  <sodipodi:namedview
     id="base"
     pagecolor="#ffffff"
     bordercolor="#666666"
     borderopacity="1.0"
     inkscape:pageopacity="0.0"
     inkscape:pageshadow="2"
     inkscape:zoom="3.2153841"
     inkscape:cx="57.551326"
     inkscape:cy="95.467582"
     inkscape:document-units="px"
     inkscape:current-layer="layer1"
     inkscape:document-rotation="0"
     showgrid="false"
     units="px"
     inkscape:window-width="1890"
     inkscape:window-height="1043"
     inkscape:window-x="0"
     inkscape:window-y="0"
     inkscape:window-maximized="1" />
  <metadata
     id="metadata1343">
    <rdf:RDF>
      <cc:Work
         rdf:about="">
        <dc:format>image/svg+xml</dc:format>
        <dc:type
           rdf:resource="http://purl.org/dc/dcmitype/StillImage" />
        <dc:title />
      </cc:Work>
    </rdf:RDF>
  </metadata>
  <g
     inkscape:label="Шар 1"
     inkscape:groupmode="layer"
     id="layer1">
    <path
       inkscape:connector-curvature="0"
       d="m 21.170475,11.11413 a 10.057979,10.058203 0 1 1 -20.1159568,0 10.057979,10.058203 0 1 1 20.1159568,0 z"
       id="path3160-7"
       style="fill:#b3b3b3;stroke:#000000;stroke-width:0.521026;stroke-linecap:round;stroke-linejoin:round;stroke-miterlimit:4;stroke-dasharray:none;stroke-opacity:1;fill-opacity:1" />
    <g
       id="g2968"
       transform="matrix(0.03255616,0,0,0.03216162,2.6458294,2.0853747)"
       style="stroke-width:8.17669">
      <path
         d="m 497.27,343.02 c -15.311,-23.92 -40.946,-40.052 -68.575,-43.156 -1.594,-0.179 -3.19,-0.304 -4.785,-0.399 l -19.874,-34.422 c -2.214,-3.835 -7.117,-5.149 -10.951,-2.934 -3.834,2.214 -5.148,7.117 -2.934,10.951 l 15.668,27.137 c -3.396,0.475 -6.781,1.118 -10.14,1.974 -0.198,0.051 -0.337,-0.066 -0.353,-0.095 -5.083,-17.994 -13.763,-34.895 -25.263,-49.643 28.032,-8.554 47.875,-34.473 47.875,-64.842 0,-37.426 -30.448,-67.875 -67.875,-67.875 -37.073,0 -67.281,29.882 -67.848,66.823 -12.682,-15.024 -31.51,-24.067 -51.868,-24.067 -3.928,0 -7.91,0.358 -11.833,1.066 -0.404,0.075 -0.837,-0.12 -0.984,-0.346 -14.168,-21.868 -38.148,-34.924 -64.143,-34.924 -30.818,0 -58.454,18.392 -70.405,46.857 -0.152,0.361 -0.421,0.545 -0.552,0.598 -11.725,-4.984 -24.646,-6.024 -37.374,-3.011 -21.969,5.202 -39.138,22.858 -43.74,44.982 -3.722,17.892 0.639,36.14 11.965,50.064 8.225,10.113 19.333,17.073 31.664,20.138 -9.248,6.96 -17.436,15.26 -24.256,24.706 -13.185,18.256 -20.334,39.472 -20.675,61.354 -0.466,29.897 10.82,58.085 31.778,79.373 20.963,21.292 48.962,33.018 78.838,33.018 h 304.823 c 20.274,0 39.737,-6.023 56.287,-17.418 16.91,-11.643 29.18,-27.843 35.481,-46.847 8.817,-26.59 5.189,-55.408 -9.951,-79.062 z M 350.063,135.749 c 28.585,0 51.841,23.256 51.841,51.841 0,25.77 -18.706,47.348 -43.91,51.191 -4.364,-4.352 -8.998,-8.441 -13.898,-12.207 -13.225,-10.164 -27.813,-17.813 -43.282,-22.841 -1.717,-5.214 -2.593,-10.63 -2.593,-16.143 0,-28.585 23.256,-51.841 51.842,-51.841 z M 25.72,257.64 c -8.268,-10.165 -11.441,-23.535 -8.706,-36.682 3.289,-15.811 16.043,-28.93 31.737,-32.646 9.396,-2.225 18.892,-1.469 27.46,2.187 3.91,1.667 8.257,1.694 12.244,0.08 4.157,-1.686 7.551,-5.056 9.31,-9.249 9.446,-22.494 31.278,-37.029 55.622,-37.029 20.538,0 39.487,10.321 50.687,27.607 3.708,5.725 10.495,8.629 17.284,7.409 2.986,-0.538 6.011,-0.811 8.989,-0.811 15.78,0 30.356,7.115 40.044,18.898 -4.753,-0.464 -9.549,-0.727 -14.39,-0.727 -25.41,0 -50.411,6.677 -72.298,19.309 -21.225,12.251 -39.139,29.821 -51.802,50.813 -0.059,0.097 -0.239,0.394 -0.732,0.298 -20.276,-3.923 -40.216,-2.039 -59.267,5.601 -0.749,0.3 -1.487,0.624 -2.228,0.938 h -10.35 v 10e-4 c -13.088,0 -25.336,-5.831 -33.604,-15.997 z m 466.282,159.395 c -10.566,31.867 -41.329,53.278 -76.549,53.278 H 110.63 c -25.547,0 -49.487,-10.026 -67.412,-28.233 -17.921,-18.202 -27.571,-42.307 -27.172,-67.875 0.29,-18.581 6.39,-36.637 17.64,-52.219 11.098,-15.37 26.377,-27.267 44.183,-34.409 10.781,-4.323 21.588,-6.472 32.695,-6.472 5.76,0 11.602,0.578 17.558,1.731 6.985,1.352 13.851,-1.694 17.507,-7.758 11.267,-18.676 27.203,-34.308 46.087,-45.208 19.454,-11.226 41.683,-17.16 64.284,-17.16 57.362,0 108.31,38.541 123.897,93.724 2.369,8.389 11.227,13.441 19.745,11.274 8.982,-2.292 18.155,-2.934 27.264,-1.911 22.873,2.57 44.13,15.977 56.861,35.867 12.705,19.851 15.631,43.067 8.235,65.371 z"
         id="path2279"
         style="stroke-width:8.17669" />
      <g
         id="g2289"
         style="stroke-width:8.17669">
        <g
           id="g2287"
           style="stroke-width:8.17669">
          <path
             d="m 238.898,265.086 c -32.711,0 -59.324,26.612 -59.324,59.324 v 42.756 c 0,32.711 26.612,59.324 59.324,59.324 32.712,0 59.324,-26.612 59.324,-59.324 V 324.41 c -10e-4,-32.712 -26.613,-59.324 -59.324,-59.324 z m 43.29,102.079 c 0,23.871 -19.42,43.29 -43.29,43.29 -23.87,0 -43.29,-19.421 -43.29,-43.29 v -42.756 c 0,-23.871 19.42,-43.29 43.29,-43.29 23.87,0 43.29,19.42 43.29,43.29 z"
             id="path2285"
             style="stroke-width:8.17669" />
        </g>
      </g>
      <g
         id="g2295"
         style="stroke-width:8.17669">
        <g
           id="g2293"
           style="stroke-width:8.17669">
          <path
             d="m 350.063,419.006 h -21.556 l 19.526,-14.644 c 6.291,-4.718 10.048,-12.231 10.048,-20.095 0,-13.851 -11.268,-25.119 -25.119,-25.119 -13.851,0 -25.119,11.268 -25.119,25.119 0,4.427 3.589,8.017 8.017,8.017 4.428,0 8.017,-3.589 8.017,-8.017 0,-5.01 4.076,-9.086 9.086,-9.086 5.01,0 9.086,4.076 9.086,9.086 0,2.844 -1.359,5.561 -3.634,7.268 l -23.942,17.957 c -4.15,3.113 -6.628,8.067 -6.628,13.254 v 4.276 c 0,4.427 3.589,8.017 8.017,8.017 h 34.205 c 4.427,0 8.017,-3.589 8.017,-8.017 0,-4.428 -3.594,-8.016 -8.021,-8.016 z"
             id="path2291"
             style="stroke-width:8.17669" />
        </g>
      </g>
      <g
         id="g2301"
         style="stroke-width:8.17669">
        <g
           id="g2299"
           style="stroke-width:8.17669">
          <path
             d="m 350.063,25.653 c -4.427,0 -8.017,3.589 -8.017,8.017 v 59.858 c 0,4.427 3.589,8.017 8.017,8.017 4.428,0 8.017,-3.589 8.017,-8.017 V 33.67 c -10e-4,-4.427 -3.59,-8.017 -8.017,-8.017 z"
             id="path2297"
             style="stroke-width:8.17669" />
        </g>
      </g>
      <g
         id="g2307"
         style="stroke-width:8.17669">
        <g
           id="g2305"
           style="stroke-width:8.17669">
          <path
             d="m 503.983,179.574 h -59.858 c -4.427,0 -8.017,3.589 -8.017,8.017 0,4.428 3.589,8.017 8.017,8.017 h 59.858 c 4.427,0 8.017,-3.589 8.017,-8.017 0,-4.428 -3.589,-8.017 -8.017,-8.017 z"
             id="path2303"
             style="stroke-width:8.17669" />
        </g>
      </g>
      <g
         id="g2313"
         style="stroke-width:8.17669">
        <g
           id="g2311"
           style="stroke-width:8.17669">
          <path
             d="m 422.48,62.16 c -3.834,-2.215 -8.737,-0.901 -10.951,2.934 l -21.378,37.028 c -2.215,3.833 -0.901,8.737 2.934,10.951 1.262,0.729 2.641,1.075 4.001,1.075 2.771,0 5.465,-1.438 6.95,-4.009 l 21.378,-37.028 c 2.214,-3.834 0.9,-8.737 -2.934,-10.951 z"
             id="path2309"
             style="stroke-width:8.17669" />
        </g>
      </g>
      <g
         id="g2319"
         style="stroke-width:8.17669">
        <g
           id="g2317"
           style="stroke-width:8.17669">
          <path
             d="M 309.974,102.121 288.596,65.093 c -2.214,-3.834 -7.117,-5.149 -10.951,-2.934 -3.834,2.214 -5.148,7.117 -2.934,10.951 l 21.378,37.028 c 1.485,2.572 4.179,4.009 6.95,4.009 1.36,0 2.739,-0.346 4.001,-1.075 3.834,-2.214 5.147,-7.117 2.934,-10.951 z"
             id="path2315"
             style="stroke-width:8.17669" />
        </g>
      </g>
      <g
         id="g2325"
         style="stroke-width:8.17669">
        <g
           id="g2323"
           style="stroke-width:8.17669">
          <path
             d="M 472.559,249.058 435.531,227.68 c -3.834,-2.215 -8.737,-0.901 -10.951,2.934 -2.214,3.834 -0.9,8.737 2.934,10.951 l 37.028,21.378 c 1.262,0.729 2.641,1.075 4.001,1.075 2.771,0 5.465,-1.438 6.95,-4.009 2.214,-3.835 0.9,-8.738 -2.934,-10.951 z"
             id="path2321"
             style="stroke-width:8.17669" />
        </g>
      </g>
      <g
         id="g2331"
         style="stroke-width:8.17669">
        <g
           id="g2329"
           style="stroke-width:8.17669">
          <path
             d="m 272.611,133.617 -37.028,-21.378 c -3.835,-2.215 -8.737,-0.9 -10.951,2.934 -2.215,3.834 -0.901,8.737 2.934,10.951 l 37.028,21.378 c 1.262,0.729 2.641,1.075 4.001,1.075 2.771,0 5.465,-1.438 6.95,-4.009 2.213,-3.834 0.9,-8.737 -2.934,-10.951 z"
             id="path2327"
             style="stroke-width:8.17669" />
        </g>
      </g>
      <g
         id="g2337"
         style="stroke-width:8.17669">
        <g
           id="g2335"
           style="stroke-width:8.17669">
          <path
             d="m 475.493,115.173 c -2.214,-3.834 -7.117,-5.149 -10.951,-2.934 l -37.028,21.378 c -3.834,2.214 -5.148,7.116 -2.934,10.951 1.485,2.572 4.179,4.009 6.95,4.009 1.36,0 2.739,-0.346 4.001,-1.075 l 37.028,-21.378 c 3.834,-2.214 5.148,-7.117 2.934,-10.951 z"
             id="path2333"
             style="stroke-width:8.17669" />
        </g>
      </g>
    </g>
  </g>
</svg>
