<?xml version="1.0" encoding="UTF-8" standalone="no"?>
<svg
   xmlns:dc="http://purl.org/dc/elements/1.1/"
   xmlns:cc="http://creativecommons.org/ns#"
   xmlns:rdf="http://www.w3.org/1999/02/22-rdf-syntax-ns#"
   xmlns:svg="http://www.w3.org/2000/svg"
   xmlns="http://www.w3.org/2000/svg"
   xmlns:sodipodi="http://sodipodi.sourceforge.net/DTD/sodipodi-0.dtd"
   xmlns:inkscape="http://www.inkscape.org/namespaces/inkscape"
   width="84"
   height="84"
   viewBox="0 0 22.225 22.225001"
   version="1.1"
   id="svg1346"
   inkscape:version="1.0 (4035a4fb49, 2020-05-01)"
   sodipodi:docname="reg7_1.svg">
  <defs
     id="defs1340" />
  <sodipodi:namedview
     id="base"
     pagecolor="#ffffff"
     bordercolor="#666666"
     borderopacity="1.0"
     inkscape:pageopacity="0.0"
     inkscape:pageshadow="2"
     inkscape:zoom="3.2153841"
     inkscape:cx="57.551326"
     inkscape:cy="95.467582"
     inkscape:document-units="px"
     inkscape:current-layer="layer1"
     inkscape:document-rotation="0"
     showgrid="false"
     units="px"
     inkscape:window-width="1890"
     inkscape:window-height="1043"
     inkscape:window-x="0"
     inkscape:window-y="0"
     inkscape:window-maximized="1" />
  <metadata
     id="metadata1343">
    <rdf:RDF>
      <cc:Work
         rdf:about="">
        <dc:format>image/svg+xml</dc:format>
        <dc:type
           rdf:resource="http://purl.org/dc/dcmitype/StillImage" />
        <dc:title />
      </cc:Work>
    </rdf:RDF>
  </metadata>
  <g
     inkscape:label="Шар 1"
     inkscape:groupmode="layer"
     id="layer1">
    <path
       inkscape:connector-curvature="0"
       d="m 21.170475,11.11413 a 10.057979,10.058203 0 1 1 -20.1159568,0 10.057979,10.058203 0 1 1 20.1159568,0 z"
       id="path3160-7"
       style="fill:#b3b3b3;stroke:#000000;stroke-width:0.521026;stroke-linecap:round;stroke-linejoin:round;stroke-miterlimit:4;stroke-dasharray:none;stroke-opacity:1;fill-opacity:1" />
    <g
       id="g4213"
       transform="matrix(0.01727891,0,0,0.01751504,2.7376276,2.9106341)"
       style="stroke-width:15.2089">
      <g
         id="g4211"
         transform="matrix(0.1,0,0,-0.1,0,511)"
         style="stroke-width:15.2089">
        <path
           id="path4203"
           d="m 5861.5,4009.7 c -140,-62.5 -211.1,-215.4 -174.5,-372.6 10.8,-40.9 549.2,-594.5 1753.2,-1800.6 L 9178.5,98.3 7436,-1644.2 5693.5,-3386.6 l -8.6,-116.3 c -15.1,-206.8 116.3,-333.8 323.1,-312.3 l 105.5,8.6 1893.2,1893.2 L 9900,-20.2 V 83.2 c 0,56 -12.9,129.2 -30.2,161.5 -49.5,90.5 -3719.7,3747.7 -3788.6,3773.5 -79.7,28.1 -140,26 -219.7,-8.5 z"
           style="stroke-width:15.2089" />
        <path
           id="path4205"
           d="m 100,2122.9 v -301.5 h 71.1 c 187.4,0 514.8,-88.3 736.6,-200.3 71.1,-34.5 303.7,-172.3 516.9,-305.9 C 2262.5,794 2671.7,654 3373.8,651.9 c 672,-4.3 1055.4,124.9 1830.8,609.5 409.2,256.3 784,441.5 1012.3,499.7 101.2,25.8 185.2,47.4 187.4,47.4 6.5,4.3 -77.6,577.2 -86.2,585.8 -15.1,15.1 -316.6,-53.8 -499.7,-112 -256.3,-81.8 -603.1,-254.2 -1010.1,-501.8 -628.9,-381.2 -865.8,-480.3 -1234.2,-516.9 -247.7,-25.8 -566.5,0 -816.3,62.5 -232.6,60.3 -583.7,234.8 -980,484.6 -422.2,267.1 -669.8,398.5 -911.1,482.5 -211.1,75.4 -499.7,131.4 -661.2,131.4 H 100 Z"
           style="stroke-width:15.2089" />
        <path
           id="path4207"
           d="M 100,315.9 V 18.6 L 246.5,5.7 c 342.5,-28 616,-142.2 1167.4,-488.9 413.5,-260.6 633.2,-379.1 870.2,-473.8 661.2,-264.9 1458.2,-273.6 2128,-21.5 180.9,66.8 491.1,230.5 792.6,420 389.8,243.4 758.2,430.8 980,497.5 176.6,53.8 224,60.3 560,60.3 428.6,2.2 555.7,-23.7 870.2,-174.5 159.4,-75.4 206.8,-90.5 219.7,-66.8 10.8,15.1 79.7,129.2 152.9,252 155.1,260.6 163.7,232.6 -129.2,370.5 C 7468.4,565.7 7113.1,628.2 6578.9,608.8 5937.1,587.3 5586,464.5 4827.8,-5.1 4382,-280.8 4149.3,-401.4 3923.2,-478.9 c -163.7,-56 -191.7,-58.2 -581.5,-56 -381.2,0 -422.2,4.3 -603.1,58.1 -275.7,84 -525.5,208.9 -982.2,493.2 -428.6,269.2 -577.2,348.9 -824.9,448 C 737.7,539.8 386.6,615.2 220.7,615.2 H 100 Z"
           style="stroke-width:15.2089" />
        <path
           id="path4209"
           d="m 100,-1493.4 v -297.2 l 168,-12.9 c 320.9,-25.8 607.4,-146.5 1160.9,-495.4 404.9,-256.3 594.5,-359.7 833.5,-456.6 379.1,-150.8 684.9,-206.8 1132.9,-206.8 680.6,0 1016.6,118.5 1938.5,674.2 579.4,348.9 848.6,454.5 1234.2,486.8 l 176.6,15.1 6.5,297.2 6.5,295.1 h -178.8 c -381.2,0 -831.4,-116.3 -1223.4,-312.3 -109.8,-56 -361.8,-200.3 -560,-323.1 -417.8,-258.5 -644,-376.9 -876.6,-456.6 -142.1,-47.4 -215.4,-58.2 -480.3,-66.8 -618.2,-19.4 -930.5,88.3 -1712.3,581.5 -641.9,407 -1085.6,577.2 -1499.1,577.2 H 100 Z"
           style="stroke-width:15.2089" />
      </g>
    </g>
  </g>
</svg>
