<?xml version="1.0" encoding="UTF-8" standalone="no"?>
<svg
   xmlns:dc="http://purl.org/dc/elements/1.1/"
   xmlns:cc="http://creativecommons.org/ns#"
   xmlns:rdf="http://www.w3.org/1999/02/22-rdf-syntax-ns#"
   xmlns:svg="http://www.w3.org/2000/svg"
   xmlns="http://www.w3.org/2000/svg"
   xmlns:sodipodi="http://sodipodi.sourceforge.net/DTD/sodipodi-0.dtd"
   xmlns:inkscape="http://www.inkscape.org/namespaces/inkscape"
   sodipodi:docname="report_0.svg"
   inkscape:version="1.0 (4035a4fb49, 2020-05-01)"
   id="svg1346"
   version="1.1"
   viewBox="0 0 22.225 22.225001"
   height="84"
   width="84">
  <defs
     id="defs1340" />
  <sodipodi:namedview
     inkscape:window-maximized="1"
     inkscape:window-y="0"
     inkscape:window-x="0"
     inkscape:window-height="1043"
     inkscape:window-width="1890"
     units="px"
     showgrid="false"
     inkscape:document-rotation="0"
     inkscape:current-layer="layer1"
     inkscape:document-units="px"
     inkscape:cy="95.467582"
     inkscape:cx="57.551326"
     inkscape:zoom="3.4946922"
     inkscape:pageshadow="2"
     inkscape:pageopacity="0.0"
     borderopacity="1.0"
     bordercolor="#666666"
     pagecolor="#ffffff"
     id="base" />
  <metadata
     id="metadata1343">
    <rdf:RDF>
      <cc:Work
         rdf:about="">
        <dc:format>image/svg+xml</dc:format>
        <dc:type
           rdf:resource="http://purl.org/dc/dcmitype/StillImage" />
        <dc:title></dc:title>
      </cc:Work>
    </rdf:RDF>
  </metadata>
  <g
     id="layer1"
     inkscape:groupmode="layer"
     inkscape:label="Шар 1">
    <path
       style="fill:#ffffff;stroke:#000000;stroke-width:0.521026;stroke-linecap:round;stroke-linejoin:round;stroke-miterlimit:4;stroke-dasharray:none;stroke-opacity:1;fill-opacity:1"
       id="path3160-7"
       d="m 21.170475,11.11413 a 10.057979,10.058203 0 1 1 -20.1159568,0 10.057979,10.058203 0 1 1 20.1159568,0 z"
       inkscape:connector-curvature="0" />
    <g
       style="stroke-width:1.10763"
       transform="matrix(0.23962265,0,0,0.23812501,3.6592373,4.2333333)"
       id="g1664">
      <g
         style="stroke-width:1.10763"
         id="g1662">
        <path
           style="stroke-width:1.10763"
           d="M 56.5,49 V 49 1 c 0,-0.6 -0.4,-1 -1,-1 h -45 c -0.6,0 -1,0.4 -1,1 v 14 h 2 V 2 h 43 v 46 h -9 c -0.6,0 -1,0.4 -1,1 v 9 h -33 V 43 h -2 v 16 c 0,0.6 0.4,1 1,1 h 35 c 0.3,0 0.5,-0.1 0.7,-0.3 l 10,-10 c 0.1,-0.1 0.1,-0.2 0.2,-0.3 v -0.1 c 0.1,-0.1 0.1,-0.2 0.1,-0.3 z m -10,1 h 6.6 l -3.3,3.3 -3.3,3.3 z"
           id="path1628" />
        <path
           style="stroke-width:1.10763"
           d="m 16.5,38 h 6 4 v -2 h -3 V 17 c 0,-0.6 -0.4,-1 -1,-1 h -6 c -0.6,0 -1,0.4 -1,1 v 6 h -5 c -0.6,0 -1,0.4 -1,1 v 4 h -5 c -0.6,0 -1,0.4 -1,1 v 8 c 0,0.6 0.4,1 1,1 h 6 z m 1,-20 h 4 v 18 h -4 V 24 Z m -6,7 h 4 v 11 h -4 v -7 z m -6,5 h 4 v 6 h -4 z"
           id="path1630" />
        <path
           style="stroke-width:1.10763"
           d="M 50.5,24 V 7 c 0,-0.6 -0.4,-1 -1,-1 h -21 c -0.6,0 -1,0.4 -1,1 v 17 c 0,0.6 0.4,1 1,1 h 21 c 0.6,0 1,-0.4 1,-1 z m -2,-12 h -12 V 8 h 12 z m -14,-4 v 4 h -5 c 0,-1.6 0,-4 0,-4 z m -5,6 h 5 v 9 h -5 c 0,0 0,-4.7 0,-9 z m 7,9 v -9 h 12 v 9 z"
           id="path1632" />
        <rect
           style="stroke-width:1.10763"
           x="28.5"
           y="28"
           width="21"
           height="2"
           id="rect1634" />
        <rect
           style="stroke-width:1.10763"
           x="28.5"
           y="33"
           width="21"
           height="2"
           id="rect1636" />
        <rect
           style="stroke-width:1.10763"
           x="28.5"
           y="38"
           width="21"
           height="2"
           id="rect1638" />
        <rect
           style="stroke-width:1.10763"
           x="14.5"
           y="6"
           width="6"
           height="2"
           id="rect1640" />
        <rect
           style="stroke-width:1.10763"
           x="14.5"
           y="11"
           width="9"
           height="2"
           id="rect1642" />
        <rect
           style="stroke-width:1.10763"
           x="14.5"
           y="43"
           width="7"
           height="2"
           id="rect1644" />
        <rect
           style="stroke-width:1.10763"
           x="24.5"
           y="43"
           width="7"
           height="2"
           id="rect1646" />
        <rect
           style="stroke-width:1.10763"
           x="34.5"
           y="43"
           width="7"
           height="2"
           id="rect1648" />
        <rect
           style="stroke-width:1.10763"
           x="14.5"
           y="48"
           width="7"
           height="2"
           id="rect1650" />
        <rect
           style="stroke-width:1.10763"
           x="24.5"
           y="48"
           width="7"
           height="2"
           id="rect1652" />
        <rect
           style="stroke-width:1.10763"
           x="34.5"
           y="48"
           width="7"
           height="2"
           id="rect1654" />
        <rect
           style="stroke-width:1.10763"
           x="14.5"
           y="53"
           width="7"
           height="2"
           id="rect1656" />
        <rect
           style="stroke-width:1.10763"
           x="24.5"
           y="53"
           width="7"
           height="2"
           id="rect1658" />
        <rect
           style="stroke-width:1.10763"
           x="34.5"
           y="53"
           width="7"
           height="2"
           id="rect1660" />
      </g>
    </g>
  </g>
</svg>
