<?xml version="1.0" encoding="UTF-8" standalone="no"?>
<svg
   xmlns:dc="http://purl.org/dc/elements/1.1/"
   xmlns:cc="http://creativecommons.org/ns#"
   xmlns:rdf="http://www.w3.org/1999/02/22-rdf-syntax-ns#"
   xmlns:svg="http://www.w3.org/2000/svg"
   xmlns="http://www.w3.org/2000/svg"
   xmlns:sodipodi="http://sodipodi.sourceforge.net/DTD/sodipodi-0.dtd"
   xmlns:inkscape="http://www.inkscape.org/namespaces/inkscape"
   sodipodi:docname="warning.svg"
   inkscape:version="1.0rc1 (09960d6f05, 2020-04-09)"
   version="1.1"
   id="svg2"
   height="100"
   width="100">
  <title
     id="title3002">1.33 Прочие опасности</title>
  <defs
     id="defs4" />
  <sodipodi:namedview
     inkscape:document-rotation="0"
     inkscape:snap-smooth-nodes="true"
     inkscape:object-nodes="true"
     inkscape:snap-intersection-paths="true"
     inkscape:object-paths="true"
     inkscape:snap-bbox-midpoints="true"
     inkscape:snap-bbox-edge-midpoints="true"
     inkscape:bbox-nodes="true"
     inkscape:bbox-paths="true"
     inkscape:snap-bbox="true"
     inkscape:window-maximized="1"
     inkscape:window-y="0"
     inkscape:window-x="0"
     inkscape:window-height="1043"
     inkscape:window-width="1890"
     showgrid="false"
     inkscape:current-layer="layer1"
     inkscape:document-units="px"
     inkscape:cy="312.83017"
     inkscape:cx="259.36559"
     inkscape:zoom="0.95920617"
     inkscape:pageshadow="2"
     inkscape:pageopacity="0.0"
     borderopacity="1.0"
     bordercolor="#666666"
     pagecolor="#ffffff"
     id="base" />
  <metadata
     id="metadata7">
    <rdf:RDF>
      <cc:Work
         rdf:about="">
        <dc:format>image/svg+xml</dc:format>
        <dc:type
           rdf:resource="http://purl.org/dc/dcmitype/StillImage" />
        <dc:title>1.33 Прочие опасности</dc:title>
        <cc:license
           rdf:resource="http://creativecommons.org/licenses/by-sa/4.0/" />
        <dc:description>ГОСТ Р 52290-2004
Размеры и пропорции по типоразмеру I</dc:description>
      </cc:Work>
      <cc:License
         rdf:about="http://creativecommons.org/licenses/by-sa/4.0/">
        <cc:permits
           rdf:resource="http://creativecommons.org/ns#Reproduction" />
        <cc:permits
           rdf:resource="http://creativecommons.org/ns#Distribution" />
        <cc:requires
           rdf:resource="http://creativecommons.org/ns#Notice" />
        <cc:requires
           rdf:resource="http://creativecommons.org/ns#Attribution" />
        <cc:permits
           rdf:resource="http://creativecommons.org/ns#DerivativeWorks" />
        <cc:requires
           rdf:resource="http://creativecommons.org/ns#ShareAlike" />
      </cc:License>
    </rdf:RDF>
  </metadata>
  <g
     transform="translate(0,-491.13214)"
     id="layer1"
     inkscape:groupmode="layer"
     inkscape:label="Layer 1">
    <g
       style="stroke-width:6.05797"
       transform="matrix(0.15769612,0,0,0.17279307,0.79644997,407.13617)"
       id="g9706">
      <path
         id="path19629"
         style="color:#000000;display:inline;overflow:visible;visibility:visible;opacity:1;fill:#ffffff;fill-opacity:1;fill-rule:nonzero;stroke:none;stroke-width:6.05797px;marker:none;enable-background:accumulate"
         d="m 339.56545,497.17249 c -21.52311,-12.42634 -49.04475,-5.052 -61.47117,16.47128 L 6.0363923,984.86209 c -12.42642,21.52311 -5.05209,49.04471 16.4710997,61.47111 6.84091,3.9496 14.60091,6.0289 22.50008,6.0289 l 544.115798,-10e-5 c 7.89926,0 15.65926,-2.0793 22.50008,-6.0289 21.52319,-12.4264 28.89761,-39.948 16.47119,-61.47109 l -272.058,-471.21824 c -3.94962,-6.84091 -9.63028,-12.52165 -16.47119,-16.47128 z"
         inkscape:connector-curvature="0"
         sodipodi:nodetypes="sccsccsccs" />
      <ellipse
         style="color:#000000;display:inline;overflow:visible;visibility:visible;opacity:1;fill:#000000;fill-opacity:1;fill-rule:nonzero;stroke:none;stroke-width:6.05797px;marker:none;enable-background:accumulate"
         id="path19631"
         transform="matrix(0.35799687,0,0,0.46975228,432.1929,560.95272)"
         cx="-321.58774"
         cy="803.42432"
         rx="122.47533"
         ry="93.338097" />
      <path
         sodipodi:nodetypes="csscccc"
         inkscape:connector-curvature="0"
         d="m 273.59482,716.08807 c -3.16073,-24.00819 13.73946,-46.03296 37.74766,-49.19369 24.00819,-3.16074 46.03296,13.73946 49.1937,37.74765 0.50014,3.79895 0.50014,7.64709 0,11.44604 L 339.35448,876.979 h -44.57797 z"
         style="color:#000000;display:inline;overflow:visible;visibility:visible;opacity:1;fill:#000000;fill-opacity:1;fill-rule:nonzero;stroke:none;stroke-width:21.4634;marker:none;enable-background:accumulate"
         id="path19633" />
      <path
         id="path5791"
         style="opacity:1;fill:none;fill-opacity:1;stroke:#000000;stroke-width:12.1159;stroke-miterlimit:4;stroke-dasharray:none;stroke-opacity:1"
         d="m 1.0074138,1007.3622 c 5.7e-5,-7.72358 2.033128,-15.31118 5.894964,-21.99998 L 278.96019,514.14412 c 12.15026,-21.0448 39.06025,-28.2554 60.10512,-16.1052 6.68883,3.8618 12.2433,9.4163 16.10512,16.1052 l 272.05769,471.2181 c 3.86184,6.6888 5.89491,14.2764 5.89497,21.99998 -7e-5,24.3005 -19.69961,43.9999 -44.00009,44 H 45.007497 c -24.300475,-10e-5 -44.0000132,-19.6995 -44.0000832,-44 z"
         inkscape:connector-curvature="0"
         sodipodi:nodetypes="cccscccccc" />
      <path
         style="opacity:1;fill:#ff0000;fill-opacity:1;stroke:none;stroke-width:6.05797"
         d="M 316.3125,10 C 304.49402,10.264781 293.09264,16.514178 286.75,27.5 L 14.6875,498.71875 c -9.6649805,16.74028 -3.92774,38.1475 12.8125,47.8125 5.32067,3.0719 11.35622,4.6875 17.5,4.6875 h 544.125 c 6.14378,0 12.17933,-1.6156 17.5,-4.6875 16.74024,-9.665 22.47748,-31.07222 12.8125,-47.8125 L 347.375,27.5 C 344.30311,22.1793 339.88318,17.7594 334.5625,14.6875 328.80805,11.365156 322.50313,9.8613054 316.3125,10 Z m 0.0625,60.25 c 1.92128,-0.135735 3.8939,0.308188 5.6875,1.34375 1.52019,0.8776 2.77858,2.13455 3.65625,3.65625 l 241.5625,418.375 c 2.76096,4.78055 1.12668,10.89475 -3.65625,13.65625 -1.52019,0.8776 -3.24473,1.34375 -5,1.34375 H 75.53125 c -5.522814,0 -10,-4.4771 -10,-10 0,-1.75545 0.436191,-3.4822 1.3125,-5 L 308.40625,75.25 c 1.72561,-2.988813 4.76661,-4.773775 7.96875,-5 z"
         id="path4410"
         inkscape:connector-curvature="0"
         transform="translate(0,491.13214)" />
    </g>
  </g>
</svg>
